<svg width="223" height="43" viewBox="0 0 223 43" fill="none" xmlns="http://www.w3.org/2000/svg">
  <g filter="url(#filter0_d_235_3014)">
    <mask id="path-1-outside-1_235_3014" maskUnits="userSpaceOnUse" x="3" y="-1" width="219"
      height="37" fill="black">
      <rect fill="white" x="3" y="-1" width="219" height="37" />
      <path
        d="M21.24 6.64C19.6667 6.64 18.2 6.81333 16.84 7.16C15.5067 7.48 14.3467 8.01333 13.36 8.76C12.3733 9.48 11.5867 10.44 11 11.64C10.44 12.84 10.16 14.2933 10.16 16C10.16 17.7333 10.44 19.2 11 20.4C11.5867 21.5733 12.3733 22.5333 13.36 23.28C14.3467 24.0267 15.5067 24.56 16.84 24.88C18.2 25.2 19.6667 25.36 21.24 25.36H25.6C27.4667 25.36 29.28 25.08 31.04 24.52C32.8267 23.9333 34.36 22.92 35.64 21.48L38.2 23.08C37.4533 24.12 36.6 24.96 35.64 25.6C34.68 26.2133 33.6533 26.68 32.56 27C31.4667 27.32 30.32 27.5333 29.12 27.64C27.9467 27.7467 26.7733 27.8 25.6 27.8H21.24C19.2933 27.8 17.48 27.6 15.8 27.2C14.1467 26.7733 12.7067 26.0933 11.48 25.16C10.28 24.2 9.33333 22.9733 8.64 21.48C7.97333 19.9867 7.64 18.16 7.64 16C7.64 13.84 7.97333 12.0133 8.64 10.52C9.33333 9.02667 10.28 7.81333 11.48 6.88C12.7067 5.92 14.1467 5.24 15.8 4.84C17.48 4.41333 19.2933 4.2 21.24 4.2H25.6C26.7733 4.2 27.9467 4.25333 29.12 4.36C30.32 4.46667 31.4667 4.68 32.56 5C33.6533 5.32 34.68 5.8 35.64 6.44C36.6 7.05333 37.4533 7.88 38.2 8.92L35.64 10.52C34.36 9.08 32.8267 8.08 31.04 7.52C29.28 6.93333 27.4667 6.64 25.6 6.64H21.24ZM25.6 8.88C27.52 8.88 29.28 9.24 30.88 9.96C32.48 10.6533 33.84 11.8 34.96 13.4L41.32 9.64C40.4133 8.09333 39.4 6.82667 38.28 5.84C37.16 4.82667 35.9333 4.04 34.6 3.48C33.2933 2.89333 31.88 2.49333 30.36 2.28C28.8667 2.06667 27.28 1.96 25.6 1.96H21.24C18.92 1.96 16.7867 2.22667 14.84 2.76C12.92 3.26666 11.2533 4.08 9.84 5.2C8.45333 6.32 7.36 7.77333 6.56 9.56C5.78667 11.32 5.4 13.4667 5.4 16C5.4 18.5333 5.78667 20.6933 6.56 22.48C7.36 24.24 8.45333 25.68 9.84 26.8C11.2533 27.92 12.92 28.7467 14.84 29.28C16.7867 29.7867 18.92 30.04 21.24 30.04H25.6C27.28 30.04 28.8667 29.9333 30.36 29.72C31.88 29.5067 33.2933 29.12 34.6 28.56C35.9333 27.9733 37.16 27.1867 38.28 26.2C39.4 25.2133 40.4133 23.9333 41.32 22.36L34.96 18.6C33.84 20.2 32.48 21.36 30.88 22.08C29.28 22.7733 27.52 23.12 25.6 23.12H21.24C20.04 23.12 18.9067 23 17.84 22.76C16.7733 22.52 15.84 22.1333 15.04 21.6C14.24 21.04 13.6 20.3067 13.12 19.4C12.64 18.4933 12.4 17.36 12.4 16C12.4 14.6667 12.64 13.5467 13.12 12.64C13.6 11.7333 14.24 11 15.04 10.44C15.8667 9.88 16.8133 9.48 17.88 9.24C18.9467 9 20.0667 8.88 21.24 8.88H25.6ZM11.4 30.56C9.88 29.2267 8.66667 27.9867 7.76 26.84C6.85333 25.6667 6.14667 24.52 5.64 23.4C5.13333 22.2533 4.8 21.08 4.64 19.88C4.48 18.68 4.4 17.3867 4.4 16C4.4 13.28 4.81333 10.9733 5.64 9.08C6.46667 7.16 7.62667 5.6 9.12 4.4C10.6133 3.2 12.3867 2.33333 14.44 1.8C16.52 1.24 18.7867 0.96 21.24 0.96H25.6C27.12 0.96 28.5733 1.02667 29.96 1.16C31.3733 1.26667 32.7733 1.58667 34.16 2.12C35.5467 2.65333 36.96 3.45333 38.4 4.52C39.84 5.58667 41.3867 7.06667 43.04 8.96C43.3067 9.25333 43.6 9.6 43.92 10C44.24 10.4 44.5467 10.8267 44.84 11.28C45.1333 11.7333 45.4267 12.2 45.72 12.68C46.0133 13.1333 46.28 13.56 46.52 13.96L38.72 18.56L35.68 15.52C34.7467 14.9067 33.7733 14.4667 32.76 14.2C31.7467 13.9067 30.6933 13.76 29.6 13.76H25.24C24.1733 13.76 23.16 13.8667 22.2 14.08C21.24 14.2933 20.3867 14.64 19.64 15.12C18.92 15.6 18.3467 16.24 17.92 17.04C17.4933 17.84 17.28 18.8267 17.28 20C17.28 20.64 17.3333 21.1733 17.44 21.6C18 21.7867 18.6 21.92 19.24 22C19.88 22.08 20.5467 22.12 21.24 22.12H25.6C27.36 22.12 29.0133 21.7467 30.56 21C32.1333 20.2533 33.52 19.0133 34.72 17.28L42.72 22L46.52 26.04C45.4533 27.8533 44.2933 29.3333 43.04 30.48C41.8133 31.6267 40.4933 32.52 39.08 33.16C37.6667 33.8267 36.1733 34.28 34.6 34.52C33.0267 34.7867 31.36 34.92 29.6 34.92H25.24C23.88 34.92 22.5333 34.8267 21.2 34.64C19.8933 34.48 18.6267 34.2133 17.4 33.84C16.2 33.4933 15.08 33.04 14.04 32.48C13.0267 31.9467 12.1467 31.3067 11.4 30.56ZM56.7084 4.2V25.36H79.3084V27.8H54.3084V4.2H56.7084ZM81.5084 30.04V23.12H58.9484V1.96H52.1084V30.04H81.5084ZM51.1084 0.96H59.9484L63.8284 5.08V22.12H82.5084L86.3884 26.24V34.92H55.2284L51.1084 31.04V0.96ZM108.653 25.36C110.2 25.36 111.64 25.2 112.973 24.88C114.333 24.5333 115.507 24 116.493 23.28C117.507 22.5333 118.293 21.5733 118.853 20.4C119.413 19.2 119.693 17.7333 119.693 16C119.693 14.2933 119.4 12.84 118.813 11.64C118.253 10.44 117.48 9.48 116.493 8.76C115.507 8.01333 114.333 7.48 112.973 7.16C111.64 6.81333 110.2 6.64 108.653 6.64H104.253C102.68 6.64 101.213 6.81333 99.8534 7.16C98.5201 7.48 97.3601 8.01333 96.3734 8.76C95.3868 9.48 94.6001 10.44 94.0134 11.64C93.4534 12.84 93.1734 14.2933 93.1734 16C93.1734 17.7333 93.4534 19.2 94.0134 20.4C94.6001 21.5733 95.3868 22.5333 96.3734 23.28C97.3601 24.0267 98.5201 24.56 99.8534 24.88C101.213 25.2 102.68 25.36 104.253 25.36H108.653ZM104.253 23.12C103.053 23.12 101.92 23 100.853 22.76C99.7868 22.52 98.8534 22.1333 98.0534 21.6C97.2534 21.04 96.6134 20.3067 96.1334 19.4C95.6534 18.4933 95.4134 17.36 95.4134 16C95.4134 14.6667 95.6534 13.5467 96.1334 12.64C96.6134 11.7333 97.2534 11 98.0534 10.44C98.8801 9.88 99.8268 9.48 100.893 9.24C101.96 9 103.08 8.88 104.253 8.88H108.653C109.827 8.88 110.947 9 112.013 9.24C113.08 9.48 114.013 9.88 114.813 10.44C115.613 11 116.253 11.7333 116.733 12.64C117.213 13.5467 117.453 14.6667 117.453 16C117.453 17.3333 117.213 18.4533 116.733 19.36C116.28 20.2667 115.653 21 114.853 21.56C114.053 22.12 113.12 22.52 112.053 22.76C110.987 23 109.853 23.12 108.653 23.12H104.253ZM90.6534 16C90.6534 13.84 90.9868 12.0133 91.6534 10.52C92.3468 9.02667 93.2934 7.81333 94.4934 6.88C95.7201 5.92 97.1601 5.24 98.8134 4.84C100.493 4.41333 102.307 4.2 104.253 4.2H108.653C110.6 4.2 112.4 4.41333 114.053 4.84C115.707 5.26667 117.133 5.94667 118.333 6.88C119.56 7.81333 120.507 9.02667 121.173 10.52C121.867 12.0133 122.213 13.84 122.213 16C122.213 18.16 121.867 19.9867 121.173 21.48C120.507 22.9733 119.56 24.1867 118.333 25.12C117.133 26.0533 115.707 26.7333 114.053 27.16C112.4 27.5867 110.6 27.8 108.653 27.8H104.253C102.307 27.8 100.493 27.6 98.8134 27.2C97.1601 26.7733 95.7201 26.0933 94.4934 25.16C93.2934 24.2 92.3468 22.9733 91.6534 21.48C90.9868 19.9867 90.6534 18.16 90.6534 16ZM88.4134 16C88.4134 18.5333 88.8001 20.6933 89.5734 22.48C90.3734 24.24 91.4668 25.68 92.8534 26.8C94.2668 27.92 95.9334 28.7467 97.8534 29.28C99.8001 29.7867 101.933 30.04 104.253 30.04H108.653C110.973 30.04 113.093 29.7867 115.013 29.28C116.933 28.7467 118.587 27.92 119.973 26.8C121.387 25.68 122.48 24.24 123.253 22.48C124.027 20.6933 124.413 18.5333 124.413 16C124.413 13.4667 124.027 11.32 123.253 9.56C122.48 7.77333 121.387 6.32 119.973 5.2C118.587 4.08 116.933 3.26666 115.013 2.76C113.093 2.22667 110.973 1.96 108.653 1.96H104.253C101.933 1.96 99.8001 2.22667 97.8534 2.76C95.9334 3.26666 94.2668 4.08 92.8534 5.2C91.4668 6.32 90.3734 7.77333 89.5734 9.56C88.8001 11.32 88.4134 13.4667 88.4134 16ZM87.4134 16C87.4134 13.28 87.8268 10.9733 88.6534 9.08C89.4801 7.16 90.6401 5.6 92.1334 4.4C93.6268 3.2 95.4001 2.33333 97.4534 1.8C99.5334 1.24 101.8 0.96 104.253 0.96H108.653C110.2 0.96 111.653 1.05333 113.013 1.24C114.4 1.4 115.76 1.76 117.093 2.32C118.427 2.85333 119.747 3.62667 121.053 4.64C122.387 5.62667 123.76 6.96 125.173 8.64C126.373 9.84 127.36 11.4267 128.133 13.4C128.907 15.3733 129.293 17.5733 129.293 20C129.293 22.6933 128.88 24.9867 128.053 26.88C127.253 28.7733 126.107 30.3067 124.613 31.48C123.147 32.68 121.387 33.5467 119.333 34.08C117.307 34.64 115.08 34.92 112.653 34.92H108.253C105.533 34.92 103 34.6133 100.653 34C98.3068 33.3867 96.3734 32.3333 94.8534 30.84C93.3334 29.5067 92.0934 28.2533 91.1334 27.08C90.1734 25.88 89.4134 24.6933 88.8534 23.52C88.3201 22.3467 87.9468 21.1467 87.7334 19.92C87.5201 18.6933 87.4134 17.3867 87.4134 16ZM108.653 22.12C109.693 22.12 110.68 22.0267 111.613 21.84C112.573 21.6267 113.413 21.28 114.133 20.8C114.853 20.32 115.413 19.6933 115.813 18.92C116.24 18.12 116.453 17.1467 116.453 16C116.453 15.36 116.373 14.7733 116.213 14.24C115.12 13.92 113.933 13.76 112.653 13.76H108.253C107.187 13.76 106.173 13.8667 105.213 14.08C104.253 14.2933 103.4 14.64 102.653 15.12C101.933 15.6 101.36 16.24 100.933 17.04C100.507 17.84 100.293 18.8267 100.293 20C100.293 20.64 100.347 21.1733 100.453 21.6C101.013 21.7867 101.613 21.92 102.253 22C102.893 22.08 103.56 22.12 104.253 22.12H108.653ZM161.572 4.2V6.2L140.972 25.36H162.852V27.8H136.732V25.8L157.412 6.64H137.972V4.2H161.572ZM151.852 8.88L134.532 24.84V30.04H165.052V23.12H146.572L163.812 7.2V1.96H135.732V8.88H151.852ZM134.732 0.96H164.812L168.692 5.08V11.6L157.252 22.12H166.052L169.932 26.24V34.92H137.652L133.532 31.04V24.4L145.052 13.76H138.852L134.732 9.88V0.96ZM198.058 8.88C198.378 8.88 198.712 8.90667 199.058 8.96C199.405 9.01333 199.725 9.10666 200.018 9.24C200.312 9.37333 200.552 9.56 200.738 9.8C200.952 10.04 201.058 10.36 201.058 10.76C201.058 11.1333 200.952 11.44 200.738 11.68C200.525 11.92 200.258 12.1067 199.938 12.24C199.645 12.3733 199.312 12.4667 198.938 12.52C198.592 12.5733 198.285 12.6 198.018 12.6H183.218V8.88H198.058ZM198.018 14.8C198.658 14.8 199.285 14.7333 199.898 14.6C200.538 14.44 201.112 14.2 201.618 13.88C202.125 13.56 202.525 13.1467 202.818 12.64C203.138 12.1067 203.298 11.48 203.298 10.76C203.298 10.0133 203.152 9.37333 202.858 8.84C202.565 8.30667 202.165 7.88 201.658 7.56C201.178 7.24 200.618 7.01333 199.978 6.88C199.365 6.72 198.725 6.64 198.058 6.64H181.018V14.8H198.018ZM201.658 16.6C201.285 16.8133 200.872 16.9733 200.418 17.08C199.965 17.1867 199.538 17.2933 199.138 17.4C200.632 19.16 202.125 20.8933 203.618 22.6C205.138 24.3067 206.658 26.04 208.178 27.8H204.938L195.698 17.2H181.018V27.8H178.538V4.2H198.058C199.152 4.2 200.165 4.32 201.098 4.56C202.058 4.8 202.872 5.18667 203.538 5.72C204.232 6.25333 204.765 6.93333 205.138 7.76C205.538 8.58666 205.738 9.58667 205.738 10.76C205.738 12.2267 205.405 13.44 204.738 14.4C204.072 15.3333 203.058 16.0667 201.698 16.6H201.658ZM207.978 10.76C207.978 9.24 207.738 7.93333 207.258 6.84C206.778 5.72 206.098 4.8 205.218 4.08C204.338 3.36 203.285 2.82667 202.058 2.48C200.858 2.13333 199.525 1.96 198.058 1.96H176.378V30.04H183.218V19.4H194.658L203.858 30.04H213.058L202.978 18.48C206.312 17.0133 207.978 14.44 207.978 10.76ZM175.378 31.04V0.96H198.058C199.098 0.96 200.098 1.04 201.058 1.2C202.018 1.33333 202.978 1.62667 203.938 2.08C204.925 2.53333 205.938 3.18666 206.978 4.04C208.045 4.89333 209.178 6.02667 210.378 7.44C211.152 8.21333 211.752 9.25333 212.178 10.56C212.632 11.84 212.858 13.24 212.858 14.76C212.858 16.52 212.472 18.08 211.698 19.44C210.952 20.8 209.858 21.9067 208.418 22.76C209.245 23.72 210.112 24.72 211.018 25.76C211.925 26.8 212.832 27.8533 213.738 28.92C214.645 29.96 215.538 30.9867 216.418 32C217.325 33.04 218.178 34.0133 218.978 34.92H207.458L203.418 31.04L197.578 24.28H188.098V34.92H179.498L175.378 31.04Z" />
    </mask>
    <path
      d="M21.24 6.64C19.6667 6.64 18.2 6.81333 16.84 7.16C15.5067 7.48 14.3467 8.01333 13.36 8.76C12.3733 9.48 11.5867 10.44 11 11.64C10.44 12.84 10.16 14.2933 10.16 16C10.16 17.7333 10.44 19.2 11 20.4C11.5867 21.5733 12.3733 22.5333 13.36 23.28C14.3467 24.0267 15.5067 24.56 16.84 24.88C18.2 25.2 19.6667 25.36 21.24 25.36H25.6C27.4667 25.36 29.28 25.08 31.04 24.52C32.8267 23.9333 34.36 22.92 35.64 21.48L38.2 23.08C37.4533 24.12 36.6 24.96 35.64 25.6C34.68 26.2133 33.6533 26.68 32.56 27C31.4667 27.32 30.32 27.5333 29.12 27.64C27.9467 27.7467 26.7733 27.8 25.6 27.8H21.24C19.2933 27.8 17.48 27.6 15.8 27.2C14.1467 26.7733 12.7067 26.0933 11.48 25.16C10.28 24.2 9.33333 22.9733 8.64 21.48C7.97333 19.9867 7.64 18.16 7.64 16C7.64 13.84 7.97333 12.0133 8.64 10.52C9.33333 9.02667 10.28 7.81333 11.48 6.88C12.7067 5.92 14.1467 5.24 15.8 4.84C17.48 4.41333 19.2933 4.2 21.24 4.2H25.6C26.7733 4.2 27.9467 4.25333 29.12 4.36C30.32 4.46667 31.4667 4.68 32.56 5C33.6533 5.32 34.68 5.8 35.64 6.44C36.6 7.05333 37.4533 7.88 38.2 8.92L35.64 10.52C34.36 9.08 32.8267 8.08 31.04 7.52C29.28 6.93333 27.4667 6.64 25.6 6.64H21.24ZM25.6 8.88C27.52 8.88 29.28 9.24 30.88 9.96C32.48 10.6533 33.84 11.8 34.96 13.4L41.32 9.64C40.4133 8.09333 39.4 6.82667 38.28 5.84C37.16 4.82667 35.9333 4.04 34.6 3.48C33.2933 2.89333 31.88 2.49333 30.36 2.28C28.8667 2.06667 27.28 1.96 25.6 1.96H21.24C18.92 1.96 16.7867 2.22667 14.84 2.76C12.92 3.26666 11.2533 4.08 9.84 5.2C8.45333 6.32 7.36 7.77333 6.56 9.56C5.78667 11.32 5.4 13.4667 5.4 16C5.4 18.5333 5.78667 20.6933 6.56 22.48C7.36 24.24 8.45333 25.68 9.84 26.8C11.2533 27.92 12.92 28.7467 14.84 29.28C16.7867 29.7867 18.92 30.04 21.24 30.04H25.6C27.28 30.04 28.8667 29.9333 30.36 29.72C31.88 29.5067 33.2933 29.12 34.6 28.56C35.9333 27.9733 37.16 27.1867 38.28 26.2C39.4 25.2133 40.4133 23.9333 41.32 22.36L34.96 18.6C33.84 20.2 32.48 21.36 30.88 22.08C29.28 22.7733 27.52 23.12 25.6 23.12H21.24C20.04 23.12 18.9067 23 17.84 22.76C16.7733 22.52 15.84 22.1333 15.04 21.6C14.24 21.04 13.6 20.3067 13.12 19.4C12.64 18.4933 12.4 17.36 12.4 16C12.4 14.6667 12.64 13.5467 13.12 12.64C13.6 11.7333 14.24 11 15.04 10.44C15.8667 9.88 16.8133 9.48 17.88 9.24C18.9467 9 20.0667 8.88 21.24 8.88H25.6ZM11.4 30.56C9.88 29.2267 8.66667 27.9867 7.76 26.84C6.85333 25.6667 6.14667 24.52 5.64 23.4C5.13333 22.2533 4.8 21.08 4.64 19.88C4.48 18.68 4.4 17.3867 4.4 16C4.4 13.28 4.81333 10.9733 5.64 9.08C6.46667 7.16 7.62667 5.6 9.12 4.4C10.6133 3.2 12.3867 2.33333 14.44 1.8C16.52 1.24 18.7867 0.96 21.24 0.96H25.6C27.12 0.96 28.5733 1.02667 29.96 1.16C31.3733 1.26667 32.7733 1.58667 34.16 2.12C35.5467 2.65333 36.96 3.45333 38.4 4.52C39.84 5.58667 41.3867 7.06667 43.04 8.96C43.3067 9.25333 43.6 9.6 43.92 10C44.24 10.4 44.5467 10.8267 44.84 11.28C45.1333 11.7333 45.4267 12.2 45.72 12.68C46.0133 13.1333 46.28 13.56 46.52 13.96L38.72 18.56L35.68 15.52C34.7467 14.9067 33.7733 14.4667 32.76 14.2C31.7467 13.9067 30.6933 13.76 29.6 13.76H25.24C24.1733 13.76 23.16 13.8667 22.2 14.08C21.24 14.2933 20.3867 14.64 19.64 15.12C18.92 15.6 18.3467 16.24 17.92 17.04C17.4933 17.84 17.28 18.8267 17.28 20C17.28 20.64 17.3333 21.1733 17.44 21.6C18 21.7867 18.6 21.92 19.24 22C19.88 22.08 20.5467 22.12 21.24 22.12H25.6C27.36 22.12 29.0133 21.7467 30.56 21C32.1333 20.2533 33.52 19.0133 34.72 17.28L42.72 22L46.52 26.04C45.4533 27.8533 44.2933 29.3333 43.04 30.48C41.8133 31.6267 40.4933 32.52 39.08 33.16C37.6667 33.8267 36.1733 34.28 34.6 34.52C33.0267 34.7867 31.36 34.92 29.6 34.92H25.24C23.88 34.92 22.5333 34.8267 21.2 34.64C19.8933 34.48 18.6267 34.2133 17.4 33.84C16.2 33.4933 15.08 33.04 14.04 32.48C13.0267 31.9467 12.1467 31.3067 11.4 30.56ZM56.7084 4.2V25.36H79.3084V27.8H54.3084V4.2H56.7084ZM81.5084 30.04V23.12H58.9484V1.96H52.1084V30.04H81.5084ZM51.1084 0.96H59.9484L63.8284 5.08V22.12H82.5084L86.3884 26.24V34.92H55.2284L51.1084 31.04V0.96ZM108.653 25.36C110.2 25.36 111.64 25.2 112.973 24.88C114.333 24.5333 115.507 24 116.493 23.28C117.507 22.5333 118.293 21.5733 118.853 20.4C119.413 19.2 119.693 17.7333 119.693 16C119.693 14.2933 119.4 12.84 118.813 11.64C118.253 10.44 117.48 9.48 116.493 8.76C115.507 8.01333 114.333 7.48 112.973 7.16C111.64 6.81333 110.2 6.64 108.653 6.64H104.253C102.68 6.64 101.213 6.81333 99.8534 7.16C98.5201 7.48 97.3601 8.01333 96.3734 8.76C95.3868 9.48 94.6001 10.44 94.0134 11.64C93.4534 12.84 93.1734 14.2933 93.1734 16C93.1734 17.7333 93.4534 19.2 94.0134 20.4C94.6001 21.5733 95.3868 22.5333 96.3734 23.28C97.3601 24.0267 98.5201 24.56 99.8534 24.88C101.213 25.2 102.68 25.36 104.253 25.36H108.653ZM104.253 23.12C103.053 23.12 101.92 23 100.853 22.76C99.7868 22.52 98.8534 22.1333 98.0534 21.6C97.2534 21.04 96.6134 20.3067 96.1334 19.4C95.6534 18.4933 95.4134 17.36 95.4134 16C95.4134 14.6667 95.6534 13.5467 96.1334 12.64C96.6134 11.7333 97.2534 11 98.0534 10.44C98.8801 9.88 99.8268 9.48 100.893 9.24C101.96 9 103.08 8.88 104.253 8.88H108.653C109.827 8.88 110.947 9 112.013 9.24C113.08 9.48 114.013 9.88 114.813 10.44C115.613 11 116.253 11.7333 116.733 12.64C117.213 13.5467 117.453 14.6667 117.453 16C117.453 17.3333 117.213 18.4533 116.733 19.36C116.28 20.2667 115.653 21 114.853 21.56C114.053 22.12 113.12 22.52 112.053 22.76C110.987 23 109.853 23.12 108.653 23.12H104.253ZM90.6534 16C90.6534 13.84 90.9868 12.0133 91.6534 10.52C92.3468 9.02667 93.2934 7.81333 94.4934 6.88C95.7201 5.92 97.1601 5.24 98.8134 4.84C100.493 4.41333 102.307 4.2 104.253 4.2H108.653C110.6 4.2 112.4 4.41333 114.053 4.84C115.707 5.26667 117.133 5.94667 118.333 6.88C119.56 7.81333 120.507 9.02667 121.173 10.52C121.867 12.0133 122.213 13.84 122.213 16C122.213 18.16 121.867 19.9867 121.173 21.48C120.507 22.9733 119.56 24.1867 118.333 25.12C117.133 26.0533 115.707 26.7333 114.053 27.16C112.4 27.5867 110.6 27.8 108.653 27.8H104.253C102.307 27.8 100.493 27.6 98.8134 27.2C97.1601 26.7733 95.7201 26.0933 94.4934 25.16C93.2934 24.2 92.3468 22.9733 91.6534 21.48C90.9868 19.9867 90.6534 18.16 90.6534 16ZM88.4134 16C88.4134 18.5333 88.8001 20.6933 89.5734 22.48C90.3734 24.24 91.4668 25.68 92.8534 26.8C94.2668 27.92 95.9334 28.7467 97.8534 29.28C99.8001 29.7867 101.933 30.04 104.253 30.04H108.653C110.973 30.04 113.093 29.7867 115.013 29.28C116.933 28.7467 118.587 27.92 119.973 26.8C121.387 25.68 122.48 24.24 123.253 22.48C124.027 20.6933 124.413 18.5333 124.413 16C124.413 13.4667 124.027 11.32 123.253 9.56C122.48 7.77333 121.387 6.32 119.973 5.2C118.587 4.08 116.933 3.26666 115.013 2.76C113.093 2.22667 110.973 1.96 108.653 1.96H104.253C101.933 1.96 99.8001 2.22667 97.8534 2.76C95.9334 3.26666 94.2668 4.08 92.8534 5.2C91.4668 6.32 90.3734 7.77333 89.5734 9.56C88.8001 11.32 88.4134 13.4667 88.4134 16ZM87.4134 16C87.4134 13.28 87.8268 10.9733 88.6534 9.08C89.4801 7.16 90.6401 5.6 92.1334 4.4C93.6268 3.2 95.4001 2.33333 97.4534 1.8C99.5334 1.24 101.8 0.96 104.253 0.96H108.653C110.2 0.96 111.653 1.05333 113.013 1.24C114.4 1.4 115.76 1.76 117.093 2.32C118.427 2.85333 119.747 3.62667 121.053 4.64C122.387 5.62667 123.76 6.96 125.173 8.64C126.373 9.84 127.36 11.4267 128.133 13.4C128.907 15.3733 129.293 17.5733 129.293 20C129.293 22.6933 128.88 24.9867 128.053 26.88C127.253 28.7733 126.107 30.3067 124.613 31.48C123.147 32.68 121.387 33.5467 119.333 34.08C117.307 34.64 115.08 34.92 112.653 34.92H108.253C105.533 34.92 103 34.6133 100.653 34C98.3068 33.3867 96.3734 32.3333 94.8534 30.84C93.3334 29.5067 92.0934 28.2533 91.1334 27.08C90.1734 25.88 89.4134 24.6933 88.8534 23.52C88.3201 22.3467 87.9468 21.1467 87.7334 19.92C87.5201 18.6933 87.4134 17.3867 87.4134 16ZM108.653 22.12C109.693 22.12 110.68 22.0267 111.613 21.84C112.573 21.6267 113.413 21.28 114.133 20.8C114.853 20.32 115.413 19.6933 115.813 18.92C116.24 18.12 116.453 17.1467 116.453 16C116.453 15.36 116.373 14.7733 116.213 14.24C115.12 13.92 113.933 13.76 112.653 13.76H108.253C107.187 13.76 106.173 13.8667 105.213 14.08C104.253 14.2933 103.4 14.64 102.653 15.12C101.933 15.6 101.36 16.24 100.933 17.04C100.507 17.84 100.293 18.8267 100.293 20C100.293 20.64 100.347 21.1733 100.453 21.6C101.013 21.7867 101.613 21.92 102.253 22C102.893 22.08 103.56 22.12 104.253 22.12H108.653ZM161.572 4.2V6.2L140.972 25.36H162.852V27.8H136.732V25.8L157.412 6.64H137.972V4.2H161.572ZM151.852 8.88L134.532 24.84V30.04H165.052V23.12H146.572L163.812 7.2V1.96H135.732V8.88H151.852ZM134.732 0.96H164.812L168.692 5.08V11.6L157.252 22.12H166.052L169.932 26.24V34.92H137.652L133.532 31.04V24.4L145.052 13.76H138.852L134.732 9.88V0.96ZM198.058 8.88C198.378 8.88 198.712 8.90667 199.058 8.96C199.405 9.01333 199.725 9.10666 200.018 9.24C200.312 9.37333 200.552 9.56 200.738 9.8C200.952 10.04 201.058 10.36 201.058 10.76C201.058 11.1333 200.952 11.44 200.738 11.68C200.525 11.92 200.258 12.1067 199.938 12.24C199.645 12.3733 199.312 12.4667 198.938 12.52C198.592 12.5733 198.285 12.6 198.018 12.6H183.218V8.88H198.058ZM198.018 14.8C198.658 14.8 199.285 14.7333 199.898 14.6C200.538 14.44 201.112 14.2 201.618 13.88C202.125 13.56 202.525 13.1467 202.818 12.64C203.138 12.1067 203.298 11.48 203.298 10.76C203.298 10.0133 203.152 9.37333 202.858 8.84C202.565 8.30667 202.165 7.88 201.658 7.56C201.178 7.24 200.618 7.01333 199.978 6.88C199.365 6.72 198.725 6.64 198.058 6.64H181.018V14.8H198.018ZM201.658 16.6C201.285 16.8133 200.872 16.9733 200.418 17.08C199.965 17.1867 199.538 17.2933 199.138 17.4C200.632 19.16 202.125 20.8933 203.618 22.6C205.138 24.3067 206.658 26.04 208.178 27.8H204.938L195.698 17.2H181.018V27.8H178.538V4.2H198.058C199.152 4.2 200.165 4.32 201.098 4.56C202.058 4.8 202.872 5.18667 203.538 5.72C204.232 6.25333 204.765 6.93333 205.138 7.76C205.538 8.58666 205.738 9.58667 205.738 10.76C205.738 12.2267 205.405 13.44 204.738 14.4C204.072 15.3333 203.058 16.0667 201.698 16.6H201.658ZM207.978 10.76C207.978 9.24 207.738 7.93333 207.258 6.84C206.778 5.72 206.098 4.8 205.218 4.08C204.338 3.36 203.285 2.82667 202.058 2.48C200.858 2.13333 199.525 1.96 198.058 1.96H176.378V30.04H183.218V19.4H194.658L203.858 30.04H213.058L202.978 18.48C206.312 17.0133 207.978 14.44 207.978 10.76ZM175.378 31.04V0.96H198.058C199.098 0.96 200.098 1.04 201.058 1.2C202.018 1.33333 202.978 1.62667 203.938 2.08C204.925 2.53333 205.938 3.18666 206.978 4.04C208.045 4.89333 209.178 6.02667 210.378 7.44C211.152 8.21333 211.752 9.25333 212.178 10.56C212.632 11.84 212.858 13.24 212.858 14.76C212.858 16.52 212.472 18.08 211.698 19.44C210.952 20.8 209.858 21.9067 208.418 22.76C209.245 23.72 210.112 24.72 211.018 25.76C211.925 26.8 212.832 27.8533 213.738 28.92C214.645 29.96 215.538 30.9867 216.418 32C217.325 33.04 218.178 34.0133 218.978 34.92H207.458L203.418 31.04L197.578 24.28H188.098V34.92H179.498L175.378 31.04Z"
      fill="#224F34" />
    <path
      d="M16.84 7.16L17.0734 8.13248L17.087 8.12901L16.84 7.16ZM13.36 8.76L13.9495 9.56779L13.9565 9.56266L13.9634 9.55741L13.36 8.76ZM11 11.64L10.1016 11.2008L10.0976 11.2089L10.0938 11.2171L11 11.64ZM11 20.4L10.0938 20.8229L10.0995 20.8351L10.1056 20.8472L11 20.4ZM13.36 23.28L13.9634 22.4826L13.36 23.28ZM16.84 24.88L16.6066 25.8524L16.611 25.8534L16.84 24.88ZM31.04 24.52L31.3432 25.473L31.352 25.4701L31.04 24.52ZM35.64 21.48L36.17 20.632L35.4537 20.1843L34.8926 20.8156L35.64 21.48ZM38.2 23.08L39.0123 23.6632L39.6341 22.7971L38.73 22.232L38.2 23.08ZM35.64 25.6L36.1784 26.4427L36.1866 26.4375L36.1947 26.4321L35.64 25.6ZM29.12 27.64L29.0315 26.6439L29.0295 26.6441L29.12 27.64ZM15.8 27.2L15.5501 28.1683L15.5592 28.1706L15.5684 28.1728L15.8 27.2ZM11.48 25.16L10.8553 25.9409L10.8648 25.9485L10.8745 25.9558L11.48 25.16ZM8.64 21.48L7.72686 21.8876L7.72988 21.8944L7.73299 21.9011L8.64 21.48ZM8.64 10.52L7.73299 10.0989L7.72988 10.1056L7.72686 10.1123L8.64 10.52ZM11.48 6.88L12.0939 7.66936L12.0963 7.6675L11.48 6.88ZM15.8 4.84L16.0352 5.81202L16.0462 5.80923L15.8 4.84ZM29.12 4.36L29.0295 5.35589L29.0315 5.35607L29.12 4.36ZM32.56 5L32.2791 5.95974L32.2791 5.95974L32.56 5ZM35.64 6.44L35.0853 7.27205L35.0934 7.27745L35.1016 7.28269L35.64 6.44ZM38.2 8.92L38.73 9.768L39.6341 9.20291L39.0123 8.33679L38.2 8.92ZM35.64 10.52L34.8926 11.1844L35.4537 11.8157L36.17 11.368L35.64 10.52ZM31.04 7.52L30.7238 8.46868L30.7323 8.47153L30.7409 8.47423L31.04 7.52ZM30.88 9.96L30.4696 10.872L30.4824 10.8776L30.88 9.96ZM34.96 13.4L34.1408 13.9735L34.6718 14.7321L35.4689 14.2608L34.96 13.4ZM41.32 9.64L41.8289 10.5008L42.6866 9.99379L42.1827 9.13428L41.32 9.64ZM38.28 5.84L37.609 6.5816L37.619 6.59036L38.28 5.84ZM34.6 3.48L34.1904 4.39227L34.2015 4.39726L34.2128 4.40198L34.6 3.48ZM30.36 2.28L30.2186 3.26995L30.221 3.27029L30.36 2.28ZM14.84 2.76L15.0952 3.72694L15.1042 3.72446L14.84 2.76ZM9.84 5.2L9.21889 4.41622L9.21166 4.42206L9.84 5.2ZM6.56 9.56L5.64729 9.15132L5.64448 9.15772L6.56 9.56ZM6.56 22.48L5.64228 22.8772L5.64588 22.8855L5.64963 22.8938L6.56 22.48ZM9.84 26.8L9.21164 27.578L9.21892 27.5837L9.84 26.8ZM14.84 29.28L14.5724 30.2435L14.5802 30.2457L14.5881 30.2478L14.84 29.28ZM30.36 29.72L30.221 28.7297L30.2186 28.7301L30.36 29.72ZM34.6 28.56L34.9939 29.4792L35.0027 29.4753L34.6 28.56ZM38.28 26.2L37.619 25.4496L38.28 26.2ZM41.32 22.36L42.1864 22.8593L42.6802 22.0025L41.8289 21.4992L41.32 22.36ZM34.96 18.6L35.4689 17.7392L34.6718 17.2679L34.1408 18.0265L34.96 18.6ZM30.88 22.08L31.2776 22.9976L31.2904 22.9919L30.88 22.08ZM15.04 21.6L14.4665 22.4192L14.4758 22.4257L14.4853 22.4321L15.04 21.6ZM13.12 19.4L14.0038 18.9321L13.12 19.4ZM13.12 12.64L14.0038 13.1079L13.12 12.64ZM15.04 10.44L14.4792 9.61208L14.4728 9.61638L14.4665 9.62077L15.04 10.44ZM17.88 9.24L17.6605 8.26439H17.6605L17.88 9.24ZM11.4 30.56L12.1071 29.8529L12.084 29.8298L12.0594 29.8082L11.4 30.56ZM7.76 26.84L6.96867 27.4515L6.97558 27.4602L7.76 26.84ZM5.64 23.4L4.72528 23.8042L4.72889 23.8122L5.64 23.4ZM4.64 19.88L5.63123 19.7478L4.64 19.88ZM5.64 9.08L6.55647 9.48015L6.55848 9.47546L5.64 9.08ZM9.12 4.4L8.49361 3.62049L9.12 4.4ZM14.44 1.8L14.6914 2.76792L14.7 2.76561L14.44 1.8ZM29.96 1.16L29.8643 2.15541L29.8745 2.15639L29.8847 2.15716L29.96 1.16ZM34.16 2.12L33.801 3.05334L34.16 2.12ZM38.4 4.52L37.8048 5.32356L38.4 4.52ZM43.04 8.96L42.2868 9.61775L42.2933 9.62528L42.3001 9.63267L43.04 8.96ZM43.92 10L43.1391 10.6247L43.1391 10.6247L43.92 10ZM45.72 12.68L44.8667 13.2015L44.8734 13.2124L44.8804 13.2232L45.72 12.68ZM46.52 13.96L47.028 14.8214L47.8959 14.3095L47.3775 13.4455L46.52 13.96ZM38.72 18.56L38.0129 19.2671L38.5607 19.8149L39.228 19.4214L38.72 18.56ZM35.68 15.52L36.3871 14.8129L36.3147 14.7405L36.2292 14.6843L35.68 15.52ZM32.76 14.2L32.4819 15.1606L32.4937 15.164L32.5055 15.1671L32.76 14.2ZM22.2 14.08L21.9831 13.1038V13.1038L22.2 14.08ZM19.64 15.12L19.0992 14.2788L19.0922 14.2833L19.0853 14.2879L19.64 15.12ZM17.44 21.6L16.4699 21.8425L16.603 22.3751L17.1238 22.5487L17.44 21.6ZM19.24 22L19.116 22.9923L19.24 22ZM30.56 21L30.1312 20.0966L30.1253 20.0994L30.56 21ZM34.72 17.28L35.2281 16.4187L34.4272 15.9462L33.8978 16.7108L34.72 17.28ZM42.72 22L43.4484 21.3149L43.3508 21.2111L43.2281 21.1387L42.72 22ZM46.52 26.04L47.3819 26.547L47.762 25.9009L47.2484 25.3549L46.52 26.04ZM43.04 30.48L42.3649 29.7422L42.3571 29.7495L43.04 30.48ZM39.08 33.16L38.6675 32.249L38.6604 32.2523L38.6534 32.2556L39.08 33.16ZM34.6 34.52L34.4492 33.5314L34.441 33.5327L34.4329 33.5341L34.6 34.52ZM21.2 34.64L21.3386 33.6497L21.3301 33.6485L21.3215 33.6474L21.2 34.64ZM17.4 33.84L17.6912 32.8833L17.6844 32.8813L17.6775 32.8793L17.4 33.84ZM14.04 32.48L14.5141 31.5995L14.5057 31.5951L14.04 32.48ZM21.24 5.64C19.5933 5.64 18.0428 5.82143 16.593 6.19098L17.087 8.12901C18.3572 7.80523 19.7401 7.64 21.24 7.64V5.64ZM16.6066 6.18761C15.1538 6.5363 13.8646 7.12411 12.7566 7.96259L13.9634 9.55741C14.8288 8.90255 15.8596 8.4237 17.0734 8.13239L16.6066 6.18761ZM12.7705 7.95221C11.6404 8.77688 10.7529 9.8686 10.1016 11.2008L11.8984 12.0792C12.4204 11.0114 13.1062 10.1831 13.9495 9.56779L12.7705 7.95221ZM10.0938 11.2171C9.45688 12.582 9.16 14.1878 9.16 16H11.16C11.16 14.3988 11.4231 13.098 11.9062 12.0629L10.0938 11.2171ZM9.16 16C9.16 17.8362 9.45603 19.4562 10.0938 20.8229L11.9062 19.9771C11.424 18.9438 11.16 17.6304 11.16 16H9.16ZM10.1056 20.8472C10.7568 22.1496 11.6399 23.2324 12.7566 24.0774L13.9634 22.4826C13.1068 21.8343 12.4166 20.9971 11.8944 19.9528L10.1056 20.8472ZM12.7566 24.0774C13.8646 24.9159 15.1538 25.5037 16.6066 25.8524L17.0734 23.9076C15.8596 23.6163 14.8288 23.1374 13.9634 22.4826L12.7566 24.0774ZM16.611 25.8534C18.0548 26.1931 19.5991 26.36 21.24 26.36V24.36C19.7343 24.36 18.3452 24.2069 17.069 23.9066L16.611 25.8534ZM21.24 26.36H25.6V24.36H21.24V26.36ZM25.6 26.36C27.5684 26.36 29.4841 26.0645 31.3432 25.4729L30.7368 23.5671C29.0759 24.0955 27.3649 24.36 25.6 24.36V26.36ZM31.352 25.4701C33.3107 24.8269 34.9931 23.713 36.3874 22.1444L34.8926 20.8156C33.7269 22.127 32.3426 23.0398 30.728 23.5699L31.352 25.4701ZM35.11 22.328L37.67 23.928L38.73 22.232L36.17 20.632L35.11 22.328ZM37.3877 22.4968C36.7035 23.4497 35.9348 24.2016 35.0853 24.768L36.1947 26.4321C37.2652 25.7184 38.2031 24.7903 39.0123 23.6632L37.3877 22.4968ZM35.1016 24.7573C34.2215 25.3196 33.2815 25.7469 32.2791 26.0403L32.8409 27.9597C34.0252 27.6131 35.1385 27.107 36.1784 26.4427L35.1016 24.7573ZM32.2791 26.0403C31.252 26.3409 30.17 26.5427 29.0315 26.6439L29.2085 28.6361C30.47 28.5239 31.6813 28.2991 32.8409 27.9597L32.2791 26.0403ZM29.0295 26.6441C27.8861 26.748 26.743 26.8 25.6 26.8V28.8C26.8037 28.8 28.0072 28.7453 29.2105 28.6359L29.0295 26.6441ZM25.6 26.8H21.24V28.8H25.6V26.8ZM21.24 26.8C19.3616 26.8 17.6268 26.607 16.0316 26.2272L15.5684 28.1728C17.3332 28.593 19.225 28.8 21.24 28.8V26.8ZM16.0499 26.2317C14.5115 25.8347 13.1954 25.2087 12.0855 24.3642L10.8745 25.9558C12.2179 26.978 13.7819 27.712 15.5501 28.1683L16.0499 26.2317ZM12.1047 24.3791C11.0338 23.5224 10.18 22.4223 9.54701 21.0589L7.73299 21.9011C8.48663 23.5243 9.52617 24.8776 10.8553 25.9409L12.1047 24.3791ZM9.55314 21.0723C8.95897 19.7414 8.64 18.0624 8.64 16H6.64C6.64 18.2576 6.9877 20.2319 7.72686 21.8876L9.55314 21.0723ZM8.64 16C8.64 13.9376 8.95897 12.2586 9.55314 10.9277L7.72686 10.1123C6.9877 11.7681 6.64 13.7424 6.64 16H8.64ZM9.54701 10.9411C10.179 9.57985 11.0298 8.49704 12.0939 7.66935L10.8661 6.09065C9.53023 7.12963 8.48764 8.47348 7.73299 10.0989L9.54701 10.9411ZM12.0963 7.6675C13.2005 6.80333 14.5077 6.18151 16.0352 5.81196L15.5648 3.86804C13.7857 4.29849 12.2128 5.03667 10.8637 6.09249L12.0963 7.6675ZM16.0462 5.80923C17.6365 5.40532 19.3663 5.2 21.24 5.2V3.2C19.2203 3.2 17.3235 3.42134 15.5538 3.87077L16.0462 5.80923ZM21.24 5.2H25.6V3.2H21.24V5.2ZM25.6 5.2C26.743 5.2 27.8861 5.25195 29.0295 5.35589L29.2105 3.36411C28.0072 3.25471 26.8037 3.2 25.6 3.2V5.2ZM29.0315 5.35607C30.17 5.45728 31.252 5.65913 32.2791 5.95974L32.8409 4.04026C31.6813 3.70087 30.47 3.47605 29.2085 3.36393L29.0315 5.35607ZM32.2791 5.95974C33.274 6.25092 34.2085 6.6875 35.0853 7.27205L36.1947 5.60795C35.1515 4.91249 34.0327 4.38908 32.8409 4.04026L32.2791 5.95974ZM35.1016 7.28269C35.9422 7.81975 36.7059 8.55359 37.3877 9.50321L39.0123 8.33679C38.2008 7.20641 37.2578 6.28691 36.1784 5.5973L35.1016 7.28269ZM37.67 8.072L35.11 9.672L36.17 11.368L38.73 9.768L37.67 8.072ZM36.3874 9.85564C34.9907 8.28429 33.3039 7.18161 31.3391 6.56577L30.7409 8.47423C32.3494 8.97839 33.7293 9.8757 34.8926 11.1844L36.3874 9.85564ZM31.3562 6.57132C29.4936 5.95045 27.5735 5.64 25.6 5.64V7.64C27.3599 7.64 29.0664 7.91622 30.7238 8.46868L31.3562 6.57132ZM25.6 5.64H21.24V7.64H25.6V5.64ZM25.6 9.88C27.392 9.88 29.0104 10.2153 30.4696 10.8719L31.2904 9.04808C29.5496 8.26473 27.648 7.88 25.6 7.88V9.88ZM30.4824 10.8776C31.893 11.4888 33.1137 12.5062 34.1408 13.9735L35.7792 12.8265C34.5663 11.0938 33.067 9.81786 31.2776 9.04244L30.4824 10.8776ZM35.4689 14.2608L41.8289 10.5008L40.8111 8.77918L34.4511 12.5392L35.4689 14.2608ZM42.1827 9.13428C41.2327 7.51373 40.155 6.15911 38.941 5.08964L37.619 6.59036C38.645 7.49422 39.5939 8.67293 40.4573 10.1457L42.1827 9.13428ZM38.9509 5.09846C37.751 4.0128 36.4292 3.16364 34.9872 2.55802L34.2128 4.40198C35.4375 4.91635 36.569 5.64053 37.6091 6.58153L38.9509 5.09846ZM35.0096 2.56773C33.6109 1.93975 32.1057 1.51521 30.499 1.28971L30.221 3.27029C31.6543 3.47145 32.9757 3.84691 34.1904 4.39227L35.0096 2.56773ZM30.5014 1.29005C28.9563 1.06932 27.3221 0.959999 25.6 0.959999V2.96C27.2379 2.96 28.777 3.06401 30.2186 3.26995L30.5014 1.29005ZM25.6 0.959999H21.24V2.96H25.6V0.959999ZM21.24 0.959999C18.8437 0.959999 16.6202 1.23541 14.5758 1.79554L15.1042 3.72446C16.9531 3.21792 18.9963 2.96 21.24 2.96V0.959999ZM14.5848 1.7931C12.5451 2.33136 10.7508 3.20232 9.21892 4.41625L10.4611 5.98375C11.7559 4.95767 13.2949 4.20197 15.0952 3.7269L14.5848 1.7931ZM9.21166 4.42206C7.69077 5.65048 6.50526 7.23527 5.64732 9.15133L7.47268 9.96866C8.21474 8.3114 9.2159 6.98952 10.4683 5.97794L9.21166 4.42206ZM5.64448 9.15772C4.80074 11.078 4.4 13.3701 4.4 16H6.4C6.4 13.5633 6.77259 11.562 7.47552 9.96227L5.64448 9.15772ZM4.4 16C4.4 18.6306 4.80097 20.9335 5.64228 22.8772L7.47772 22.0828C6.77237 20.4532 6.4 18.436 6.4 16H4.4ZM5.64963 22.8938C6.50847 24.7833 7.6939 26.3521 9.21166 27.5779L10.4683 26.0221C9.21276 25.0079 8.21153 23.6967 7.47037 22.0662L5.64963 22.8938ZM9.21892 27.5837C10.7474 28.795 12.5373 29.6782 14.5724 30.2435L15.1076 28.3165C13.3027 27.8151 11.7593 27.045 10.4611 26.0163L9.21892 27.5837ZM14.5881 30.2478C16.6285 30.7788 18.8477 31.04 21.24 31.04V29.04C18.9923 29.04 16.9449 28.7945 15.0919 28.3122L14.5881 30.2478ZM21.24 31.04H25.6V29.04H21.24V31.04ZM25.6 31.04C27.3221 31.04 28.9563 30.9307 30.5014 30.7099L30.2186 28.7301C28.777 28.936 27.2379 29.04 25.6 29.04V31.04ZM30.499 30.7103C32.0998 30.4856 33.5996 30.0767 34.9939 29.4791L34.2061 27.6409C32.9871 28.1633 31.6602 28.5277 30.221 28.7297L30.499 30.7103ZM35.0027 29.4753C36.4325 28.8462 37.7458 28.0033 38.941 26.9504L37.619 25.4496C36.5742 26.3701 35.4342 27.1004 34.1973 27.6447L35.0027 29.4753ZM38.941 26.9504C40.1582 25.8781 41.2368 24.5072 42.1864 22.8593L40.4536 21.8607C39.5899 23.3594 38.6418 24.5486 37.619 25.4496L38.941 26.9504ZM41.8289 21.4992L35.4689 17.7392L34.4511 19.4608L40.8111 23.2208L41.8289 21.4992ZM34.1408 18.0265C33.1121 19.4961 31.8873 20.5301 30.4696 21.1681L31.2904 22.9919C33.0727 22.1899 34.5679 20.9039 35.7792 19.1735L34.1408 18.0265ZM30.4824 21.1624C29.0201 21.7961 27.3971 22.12 25.6 22.12V24.12C27.6429 24.12 29.5399 23.7505 31.2776 22.9976L30.4824 21.1624ZM25.6 22.12H21.24V24.12H25.6V22.12ZM21.24 22.12C20.1068 22.12 19.0475 22.0067 18.0595 21.7844L17.6205 23.7356C18.7658 23.9933 19.9732 24.12 21.24 24.12V22.12ZM18.0595 21.7844C17.0962 21.5676 16.2797 21.2246 15.5947 20.768L14.4853 22.4321C15.4003 23.042 16.4505 23.4724 17.6205 23.7356L18.0595 21.7844ZM15.6135 20.7808C14.9499 20.3163 14.4135 19.706 14.0038 18.9321L12.2362 19.8679C12.7865 20.9073 13.5301 21.7637 14.4665 22.4192L15.6135 20.7808ZM14.0038 18.9321C13.6209 18.2088 13.4 17.248 13.4 16H11.4C11.4 17.472 11.6591 18.7778 12.2362 19.8679L14.0038 18.9321ZM13.4 16C13.4 14.7824 13.6195 13.8337 14.0038 13.1079L12.2362 12.1721C11.6605 13.2597 11.4 14.5509 11.4 16H13.4ZM14.0038 13.1079C14.4135 12.334 14.9499 11.7237 15.6135 11.2592L14.4665 9.62077C13.5301 10.2763 12.7865 11.1327 12.2362 12.1721L14.0038 13.1079ZM15.6009 11.2679C16.3146 10.7844 17.1432 10.4308 18.0995 10.2156L17.6605 8.26439C16.4834 8.52923 15.4188 8.97556 14.4792 9.61208L15.6009 11.2679ZM18.0995 10.2156C19.0891 9.99295 20.1352 9.88 21.24 9.88V7.88C19.9982 7.88 18.8042 8.00704 17.6605 8.26439L18.0995 10.2156ZM21.24 9.88H25.6V7.88H21.24V9.88ZM12.0594 29.8082C10.5691 28.5009 9.40231 27.3048 8.54442 26.2198L6.97558 27.4602C7.93102 28.6686 9.19093 29.9524 10.7406 31.3118L12.0594 29.8082ZM8.55129 26.2286C7.68277 25.1046 7.01995 24.0242 6.55111 22.9878L4.72889 23.8122C5.27339 25.0158 6.0239 26.2287 6.96872 27.4514L8.55129 26.2286ZM6.55469 22.9958C6.08491 21.9327 5.77828 20.8507 5.63123 19.7478L3.64877 20.0122C3.82172 21.3093 4.18175 22.574 4.72531 23.8042L6.55469 22.9958ZM5.63123 19.7478C5.47784 18.5974 5.4 17.3487 5.4 16H3.4C3.4 17.4247 3.48216 18.7626 3.64877 20.0122L5.63123 19.7478ZM5.4 16C5.4 13.3762 5.79937 11.2141 6.55645 9.48014L4.72355 8.67986C3.82729 10.7326 3.4 13.1838 3.4 16H5.4ZM6.55848 9.47546C7.32661 7.69142 8.39166 6.26813 9.74639 5.17951L8.49361 3.62049C6.86167 4.93187 5.60672 6.62858 4.72152 8.68454L6.55848 9.47546ZM9.74639 5.17951C11.1181 4.07722 12.7602 3.2695 14.6914 2.76788L14.1886 0.832115C12.0132 1.39717 10.1085 2.32278 8.49361 3.62049L9.74639 5.17951ZM14.7 2.76561C16.6844 2.23134 18.8625 1.96 21.24 1.96V-0.0400004C18.7108 -0.0400004 16.3556 0.248654 14.18 0.834382L14.7 2.76561ZM21.24 1.96H25.6V-0.0400004H21.24V1.96ZM25.6 1.96C27.0909 1.96 28.5122 2.0254 29.8643 2.15541L30.0557 0.16459C28.6345 0.027937 27.1491 -0.0400004 25.6 -0.0400004V1.96ZM29.8847 2.15716C31.1963 2.25615 32.5009 2.5533 33.801 3.05334L34.519 1.18665C33.0458 0.62003 31.5504 0.277183 30.0353 0.162835L29.8847 2.15716ZM33.801 3.05334C35.0882 3.54842 36.4229 4.29996 37.8048 5.32356L38.9952 3.71644C37.4971 2.6067 36.0051 1.75824 34.519 1.18665L33.801 3.05334ZM37.8048 5.32356C39.1691 6.33419 40.6634 7.75872 42.2868 9.61775L43.7932 8.30225C42.1099 6.37461 40.5109 4.83914 38.9952 3.71644L37.8048 5.32356ZM42.3001 9.63267C42.5492 9.90673 42.8287 10.2367 43.1391 10.6247L44.7009 9.37531C44.3713 8.96334 44.0641 8.59993 43.7799 8.28733L42.3001 9.63267ZM43.1391 10.6247C43.4371 10.9972 43.7243 11.3965 44.0004 11.8233L45.6796 10.7367C45.369 10.2568 45.0429 9.80281 44.7009 9.37531L43.1391 10.6247ZM44.0004 11.8233C44.2889 12.2691 44.5777 12.7285 44.8667 13.2015L46.5733 12.1585C46.2757 11.6715 45.9778 11.1976 45.6796 10.7367L44.0004 11.8233ZM44.8804 13.2232C45.1686 13.6685 45.4291 14.0855 45.6625 14.4745L47.3775 13.4455C47.1309 13.0345 46.8581 12.5981 46.5596 12.1368L44.8804 13.2232ZM46.012 13.0986L38.212 17.6986L39.228 19.4214L47.028 14.8214L46.012 13.0986ZM39.4271 17.8529L36.3871 14.8129L34.9729 16.2271L38.0129 19.2671L39.4271 17.8529ZM36.2292 14.6843C35.2114 14.0154 34.1392 13.5289 33.0145 13.2329L32.5055 15.1671C33.4075 15.4044 34.282 15.7979 35.1308 16.3557L36.2292 14.6843ZM33.0381 13.2394C31.9311 12.919 30.784 12.76 29.6 12.76V14.76C30.6027 14.76 31.5622 14.8943 32.4819 15.1606L33.0381 13.2394ZM29.6 12.76H25.24V14.76H29.6V12.76ZM25.24 12.76C24.1065 12.76 23.02 12.8734 21.9831 13.1038L22.4169 15.0562C23.3 14.86 24.2402 14.76 25.24 14.76V12.76ZM21.9831 13.1038C20.9204 13.34 19.9552 13.7286 19.0992 14.2788L20.1808 15.9612C20.8182 15.5514 21.5596 15.2467 22.4169 15.0562L21.9831 13.1038ZM19.0853 14.2879C18.2213 14.864 17.5382 15.6309 17.0376 16.5694L18.8024 17.5106C19.1552 16.8491 19.6187 16.336 20.1947 15.9521L19.0853 14.2879ZM17.0376 16.5694C16.5143 17.5506 16.28 18.7094 16.28 20H18.28C18.28 18.944 18.4723 18.1294 18.8024 17.5106L17.0376 16.5694ZM16.28 20C16.28 20.6883 16.3366 21.3096 16.4699 21.8425L18.4101 21.3575C18.3301 21.0371 18.28 20.5917 18.28 20H16.28ZM17.1238 22.5487C17.7517 22.758 18.4166 22.9049 19.116 22.9923L19.364 21.0077C18.7834 20.9351 18.2483 20.8153 17.7562 20.6513L17.1238 22.5487ZM19.116 22.9923C19.8 23.0778 20.5083 23.12 21.24 23.12V21.12C20.5851 21.12 19.96 21.0822 19.364 21.0077L19.116 22.9923ZM21.24 23.12H25.6V21.12H21.24V23.12ZM25.6 23.12C27.5067 23.12 29.3091 22.7143 30.9948 21.9006L30.1253 20.0994C28.7176 20.779 27.2133 21.12 25.6 21.12V23.12ZM30.9887 21.9034C32.7504 21.0674 34.2635 19.6962 35.5422 17.8492L33.8978 16.7108C32.7765 18.3304 31.5162 19.4393 30.1313 20.0966L30.9887 21.9034ZM34.2119 18.1413L42.2119 22.8613L43.2281 21.1387L35.2281 16.4187L34.2119 18.1413ZM41.9916 22.6851L45.7916 26.7251L47.2484 25.3549L43.4484 21.3149L41.9916 22.6851ZM45.6581 25.533C44.6304 27.2801 43.5298 28.6765 42.365 29.7422L43.715 31.2178C45.0569 29.9902 46.2763 28.4266 47.3819 26.547L45.6581 25.533ZM42.3571 29.7495C41.2036 30.8278 39.9736 31.6576 38.6675 32.249L39.4925 34.071C41.0131 33.3824 42.4231 32.4256 43.7229 31.2105L42.3571 29.7495ZM38.6534 32.2556C37.3291 32.8802 35.9288 33.3057 34.4492 33.5314L34.7508 35.5086C36.4179 35.2543 38.0043 34.7731 39.5066 34.0644L38.6534 32.2556ZM34.4329 33.5341C32.9201 33.7905 31.3096 33.92 29.6 33.92V35.92C31.4104 35.92 33.1333 35.7829 34.7671 35.5059L34.4329 33.5341ZM29.6 33.92H25.24V35.92H29.6V33.92ZM25.24 33.92C23.9259 33.92 22.6256 33.8298 21.3386 33.6497L21.0614 35.6303C22.4411 35.8235 23.8341 35.92 25.24 35.92V33.92ZM21.3215 33.6474C20.0708 33.4943 18.861 33.2394 17.6912 32.8833L17.1088 34.7967C18.3924 35.1873 19.7159 35.4657 21.0785 35.6326L21.3215 33.6474ZM17.6775 32.8793C16.5418 32.5512 15.4881 32.124 14.5141 31.5995L13.5659 33.3605C14.6719 33.956 15.8582 34.4355 17.1225 34.8007L17.6775 32.8793ZM14.5057 31.5951C13.5739 31.1046 12.777 30.5228 12.1071 29.8529L10.6929 31.2671C11.5164 32.0906 12.4795 32.7887 13.5743 33.3649L14.5057 31.5951ZM56.7084 4.2H57.7084V3.2H56.7084V4.2ZM56.7084 25.36H55.7084V26.36H56.7084V25.36ZM79.3084 25.36H80.3084V24.36H79.3084V25.36ZM79.3084 27.8V28.8H80.3084V27.8H79.3084ZM54.3084 27.8H53.3084V28.8H54.3084V27.8ZM54.3084 4.2V3.2H53.3084V4.2H54.3084ZM81.5084 30.04V31.04H82.5084V30.04H81.5084ZM81.5084 23.12H82.5084V22.12H81.5084V23.12ZM58.9484 23.12H57.9484V24.12H58.9484V23.12ZM58.9484 1.96H59.9484V0.959999H58.9484V1.96ZM52.1084 1.96V0.959999H51.1084V1.96H52.1084ZM52.1084 30.04H51.1084V31.04H52.1084V30.04ZM51.1084 0.96V-0.0400004H50.1084V0.96H51.1084ZM59.9484 0.96L60.6764 0.274414L60.3803 -0.0400004H59.9484V0.96ZM63.8284 5.08H64.8284V4.68325L64.5564 4.39441L63.8284 5.08ZM63.8284 22.12H62.8284V23.12H63.8284V22.12ZM82.5084 22.12L83.2364 21.4344L82.9403 21.12H82.5084V22.12ZM86.3884 26.24H87.3884V25.8432L87.1164 25.5544L86.3884 26.24ZM86.3884 34.92V35.92H87.3884V34.92H86.3884ZM55.2284 34.92L54.5429 35.648L54.8317 35.92H55.2284V34.92ZM51.1084 31.04H50.1084V31.4719L50.4229 31.768L51.1084 31.04ZM55.7084 4.2V25.36H57.7084V4.2H55.7084ZM56.7084 26.36H79.3084V24.36H56.7084V26.36ZM78.3084 25.36V27.8H80.3084V25.36H78.3084ZM79.3084 26.8H54.3084V28.8H79.3084V26.8ZM55.3084 27.8V4.2H53.3084V27.8H55.3084ZM54.3084 5.2H56.7084V3.2H54.3084V5.2ZM82.5084 30.04V23.12H80.5084V30.04H82.5084ZM81.5084 22.12H58.9484V24.12H81.5084V22.12ZM59.9484 23.12V1.96H57.9484V23.12H59.9484ZM58.9484 0.959999H52.1084V2.96H58.9484V0.959999ZM51.1084 1.96V30.04H53.1084V1.96H51.1084ZM52.1084 31.04H81.5084V29.04H52.1084V31.04ZM51.1084 1.96H59.9484V-0.0400004H51.1084V1.96ZM59.2204 1.64558L63.1004 5.76558L64.5564 4.39441L60.6764 0.274414L59.2204 1.64558ZM62.8284 5.08V22.12H64.8284V5.08H62.8284ZM63.8284 23.12H82.5084V21.12H63.8284V23.12ZM81.7804 22.8056L85.6604 26.9256L87.1164 25.5544L83.2364 21.4344L81.7804 22.8056ZM85.3884 26.24V34.92H87.3884V26.24H85.3884ZM86.3884 33.92H55.2284V35.92H86.3884V33.92ZM55.914 34.192L51.794 30.312L50.4229 31.768L54.5429 35.648L55.914 34.192ZM52.1084 31.04V0.96H50.1084V31.04H52.1084ZM112.973 24.88L113.207 25.8525L113.22 25.849L112.973 24.88ZM116.493 23.28L117.083 24.0878L117.087 24.0851L116.493 23.28ZM118.853 20.4L119.756 20.8307L119.76 20.8229L118.853 20.4ZM118.813 11.64L117.907 12.0629L117.911 12.0711L117.915 12.0792L118.813 11.64ZM116.493 8.76L115.89 9.55741L115.897 9.56266L115.904 9.56779L116.493 8.76ZM112.973 7.16L112.722 8.12782L112.733 8.13075L112.744 8.13342L112.973 7.16ZM99.8534 7.16L100.087 8.13248L100.1 8.12901L99.8534 7.16ZM96.3734 8.76L96.9629 9.56779L96.9699 9.56266L96.9769 9.55741L96.3734 8.76ZM94.0134 11.64L93.1151 11.2008L93.1111 11.2089L93.1073 11.2171L94.0134 11.64ZM94.0134 20.4L93.1073 20.8229L93.113 20.8351L93.119 20.8472L94.0134 20.4ZM96.3734 23.28L96.9769 22.4826L96.3734 23.28ZM99.8534 24.88L99.6201 25.8524L99.6244 25.8534L99.8534 24.88ZM100.853 22.76L101.073 21.7844L100.853 22.76ZM98.0534 21.6L97.48 22.4192L97.4893 22.4257L97.4987 22.4321L98.0534 21.6ZM96.1334 19.4L97.0172 18.9321L96.1334 19.4ZM96.1334 12.64L97.0172 13.1079L96.1334 12.64ZM98.0534 10.44L97.4926 9.61208L97.4863 9.61638L97.48 9.62077L98.0534 10.44ZM100.893 9.24L100.674 8.26439L100.893 9.24ZM112.013 9.24L112.233 8.26439L112.013 9.24ZM114.813 10.44L115.387 9.62077L114.813 10.44ZM116.733 19.36L115.85 18.8921L115.844 18.9024L115.839 18.9128L116.733 19.36ZM114.853 21.56L114.28 20.7408V20.7408L114.853 21.56ZM91.6534 10.52L90.7464 10.0989L90.7433 10.1056L90.7403 10.1123L91.6534 10.52ZM94.4934 6.88L95.1074 7.66936L95.1097 7.6675L94.4934 6.88ZM98.8134 4.84L99.0486 5.81202L99.0596 5.80923L98.8134 4.84ZM114.053 4.84L113.804 5.80828L114.053 4.84ZM118.333 6.88L117.719 7.6694L117.728 7.67583L118.333 6.88ZM121.173 10.52L120.26 10.9276L120.263 10.9344L120.266 10.9411L121.173 10.52ZM121.173 21.48L120.266 21.0589L120.263 21.0656L120.26 21.0723L121.173 21.48ZM118.333 25.12L117.728 24.3241L117.719 24.3306L118.333 25.12ZM114.053 27.16L114.303 28.1283L114.053 27.16ZM98.8134 27.2L98.5636 28.1683L98.5727 28.1706L98.5818 28.1728L98.8134 27.2ZM94.4934 25.16L93.8687 25.9409L93.8782 25.9485L93.8879 25.9558L94.4934 25.16ZM91.6534 21.48L90.7403 21.8876L90.7433 21.8944L90.7464 21.9011L91.6534 21.48ZM89.5734 22.48L88.6557 22.8772L88.6593 22.8855L88.6631 22.8938L89.5734 22.48ZM92.8534 26.8L92.2251 27.578L92.2324 27.5837L92.8534 26.8ZM97.8534 29.28L97.5858 30.2435L97.5937 30.2457L97.6016 30.2478L97.8534 29.28ZM115.013 29.28L115.269 30.247L115.281 30.2435L115.013 29.28ZM119.973 26.8L119.352 26.0162L119.345 26.0221L119.973 26.8ZM123.253 22.48L124.169 22.8823L124.171 22.8772L123.253 22.48ZM123.253 9.56L122.336 9.95723L122.338 9.96227L123.253 9.56ZM119.973 5.2L119.345 5.97797L119.352 5.98375L119.973 5.2ZM115.013 2.76L114.746 3.7236L114.758 3.7269L115.013 2.76ZM97.8534 2.76L98.1086 3.72694L98.1177 3.72446L97.8534 2.76ZM92.8534 5.2L92.2323 4.41622L92.2251 4.42206L92.8534 5.2ZM89.5734 9.56L88.6607 9.15132L88.6579 9.15773L89.5734 9.56ZM88.6534 9.08L89.5699 9.48015L89.5719 9.47546L88.6534 9.08ZM92.1334 4.4L91.507 3.62049L92.1334 4.4ZM97.4534 1.8L97.7048 2.76792L97.7134 2.76561L97.4534 1.8ZM113.013 1.24L112.877 2.23071L112.888 2.23217L112.899 2.23341L113.013 1.24ZM117.093 2.32L116.706 3.24198L116.714 3.2453L116.722 3.24848L117.093 2.32ZM121.053 4.64L120.441 5.43022L120.45 5.43713L120.459 5.44384L121.053 4.64ZM125.173 8.64L124.408 9.28376L124.436 9.31668L124.466 9.34711L125.173 8.64ZM128.053 26.88L127.137 26.4798L127.132 26.4908L128.053 26.88ZM124.613 31.48L123.996 30.6937L123.988 30.6998L123.98 30.706L124.613 31.48ZM119.333 34.08L119.082 33.1121L119.075 33.1141L119.067 33.1161L119.333 34.08ZM100.653 34L100.401 34.9675L100.653 34ZM94.8534 30.84L95.5543 30.1267L95.5341 30.1069L95.5129 30.0882L94.8534 30.84ZM91.1334 27.08L90.3525 27.7047L90.3595 27.7132L91.1334 27.08ZM88.8534 23.52L87.9431 23.9338L87.9469 23.9423L87.951 23.9507L88.8534 23.52ZM87.7334 19.92L86.7482 20.0913L87.7334 19.92ZM111.613 21.84L111.81 22.8206L111.82 22.8185L111.83 22.8162L111.613 21.84ZM114.133 20.8L114.688 21.632L114.133 20.8ZM115.813 18.92L114.931 18.4494L114.925 18.4606L115.813 18.92ZM116.213 14.24L117.171 13.9527L117.015 13.4327L116.494 13.2803L116.213 14.24ZM105.213 14.08L104.997 13.1038V13.1038L105.213 14.08ZM102.653 15.12L102.113 14.2788L102.106 14.2833L102.099 14.2879L102.653 15.12ZM100.933 17.04L100.051 16.5694L100.933 17.04ZM100.453 21.6L99.4833 21.8425L99.6164 22.3751L100.137 22.5487L100.453 21.6ZM102.253 22L102.129 22.9923L102.253 22ZM108.653 26.36C110.269 26.36 111.788 26.1929 113.207 25.8524L112.74 23.9076C111.492 24.2071 110.131 24.36 108.653 24.36V26.36ZM113.22 25.849C114.686 25.4755 115.979 24.8932 117.083 24.0878L115.904 22.4722C115.034 23.1068 113.981 23.5911 112.726 23.911L113.22 25.849ZM117.087 24.0851C118.237 23.2376 119.128 22.1473 119.756 20.8307L117.951 19.9693C117.459 20.9994 116.777 21.829 115.9 22.4749L117.087 24.0851ZM119.76 20.8229C120.397 19.4562 120.693 17.8362 120.693 16H118.693C118.693 17.6304 118.429 18.9438 117.947 19.9771L119.76 20.8229ZM120.693 16C120.693 14.182 120.381 12.5701 119.712 11.2008L117.915 12.0792C118.419 13.1099 118.693 14.4046 118.693 16H120.693ZM119.72 11.2171C119.094 9.87736 118.217 8.77998 117.083 7.95221L115.904 9.56779C116.743 10.18 117.412 11.0026 117.907 12.0629L119.72 11.2171ZM117.097 7.96259C115.986 7.12157 114.681 6.53439 113.202 6.18658L112.744 8.13342C113.986 8.42561 115.028 8.90509 115.89 9.55741L117.097 7.96259ZM113.225 6.19218C111.8 5.82172 110.275 5.64 108.653 5.64V7.64C110.125 7.64 111.48 7.80495 112.722 8.12782L113.225 6.19218ZM108.653 5.64H104.253V7.64H108.653V5.64ZM104.253 5.64C102.607 5.64 101.056 5.82143 99.6064 6.19098L100.1 8.12901C101.371 7.80523 102.754 7.64 104.253 7.64V5.64ZM99.6201 6.18761C98.1672 6.5363 96.878 7.12411 95.77 7.96259L96.9769 9.55741C97.8422 8.90255 98.873 8.4237 100.087 8.13239L99.6201 6.18761ZM95.784 7.95221C94.6539 8.77688 93.7663 9.8686 93.1151 11.2008L94.9118 12.0792C95.4339 11.0114 96.1197 10.1831 96.9629 9.56779L95.784 7.95221ZM93.1073 11.2171C92.4703 12.582 92.1734 14.1878 92.1734 16H94.1734C94.1734 14.3988 94.4366 13.098 94.9196 12.0629L93.1073 11.2171ZM92.1734 16C92.1734 17.8362 92.4695 19.4562 93.1073 20.8229L94.9196 19.9771C94.4374 18.9438 94.1734 17.6304 94.1734 16H92.1734ZM93.119 20.8472C93.7702 22.1496 94.6533 23.2324 95.77 24.0774L96.9769 22.4826C96.1202 21.8343 95.43 20.9971 94.9079 19.9528L93.119 20.8472ZM95.77 24.0774C96.878 24.9159 98.1672 25.5037 99.6201 25.8524L100.087 23.9076C98.873 23.6163 97.8422 23.1374 96.9769 22.4826L95.77 24.0774ZM99.6244 25.8534C101.068 26.1931 102.613 26.36 104.253 26.36V24.36C102.748 24.36 101.359 24.2069 100.082 23.9066L99.6244 25.8534ZM104.253 26.36H108.653V24.36H104.253V26.36ZM104.253 22.12C103.12 22.12 102.061 22.0067 101.073 21.7844L100.634 23.7356C101.779 23.9933 102.987 24.12 104.253 24.12V22.12ZM101.073 21.7844C100.11 21.5676 99.2932 21.2246 98.6081 20.768L97.4987 22.4321C98.4137 23.042 99.4639 23.4724 100.634 23.7356L101.073 21.7844ZM98.6269 20.7808C97.9633 20.3163 97.4269 19.706 97.0172 18.9321L95.2496 19.8679C95.7999 20.9073 96.5436 21.7637 97.48 22.4192L98.6269 20.7808ZM97.0172 18.9321C96.6343 18.2088 96.4134 17.248 96.4134 16H94.4134C94.4134 17.472 94.6726 18.7778 95.2496 19.8679L97.0172 18.9321ZM96.4134 16C96.4134 14.7824 96.633 13.8337 97.0172 13.1079L95.2496 12.1721C94.6739 13.2597 94.4134 14.5509 94.4134 16H96.4134ZM97.0172 13.1079C97.4269 12.334 97.9633 11.7237 98.6269 11.2592L97.48 9.62077C96.5436 10.2763 95.7999 11.1327 95.2496 12.1721L97.0172 13.1079ZM98.6143 11.2679C99.328 10.7844 100.157 10.4308 101.113 10.2156L100.674 8.26439C99.4969 8.52923 98.4322 8.97556 97.4926 9.61208L98.6143 11.2679ZM101.113 10.2156C102.103 9.99295 103.149 9.88 104.253 9.88V7.88C103.012 7.88 101.818 8.00704 100.674 8.26439L101.113 10.2156ZM104.253 9.88H108.653V7.88H104.253V9.88ZM108.653 9.88C109.758 9.88 110.804 9.99295 111.794 10.2156L112.233 8.26439C111.089 8.00704 109.895 7.88 108.653 7.88V9.88ZM111.794 10.2156C112.749 10.4304 113.559 10.7823 114.24 11.2592L115.387 9.62077C114.468 8.97766 113.411 8.52956 112.233 8.26439L111.794 10.2156ZM114.24 11.2592C114.904 11.7237 115.44 12.334 115.85 13.1079L117.617 12.1721C117.067 11.1327 116.323 10.2763 115.387 9.62077L114.24 11.2592ZM115.85 13.1079C116.234 13.8337 116.453 14.7824 116.453 16H118.453C118.453 14.5509 118.193 13.2597 117.617 12.1721L115.85 13.1079ZM116.453 16C116.453 17.2176 116.234 18.1663 115.85 18.8921L117.617 19.8279C118.193 18.7403 118.453 17.4491 118.453 16H116.453ZM115.839 18.9128C115.457 19.6766 114.938 20.2798 114.28 20.7408L115.427 22.3792C116.368 21.7201 117.103 20.8568 117.628 19.8072L115.839 18.9128ZM114.28 20.7408C113.599 21.2177 112.789 21.5696 111.834 21.7844L112.273 23.7356C113.451 23.4704 114.508 23.0223 115.427 22.3792L114.28 20.7408ZM111.834 21.7844C110.846 22.0067 109.787 22.12 108.653 22.12V24.12C109.92 24.12 111.128 23.9933 112.273 23.7356L111.834 21.7844ZM108.653 22.12H104.253V24.12H108.653V22.12ZM91.6534 16C91.6534 13.9376 91.9724 12.2586 92.5666 10.9277L90.7403 10.1123C90.0011 11.7681 89.6534 13.7424 89.6534 16H91.6534ZM92.5604 10.9411C93.1925 9.57985 94.0432 8.49704 95.1074 7.66935L93.8795 6.09065C92.5437 7.12963 91.5011 8.47348 90.7464 10.0989L92.5604 10.9411ZM95.1097 7.6675C96.214 6.80333 97.5211 6.18151 99.0486 5.81196L98.5783 3.86804C96.7991 4.29849 95.2262 5.03667 93.8771 6.09249L95.1097 7.6675ZM99.0596 5.80923C100.65 5.40532 102.38 5.2 104.253 5.2V3.2C102.234 3.2 100.337 3.42134 98.5673 3.87077L99.0596 5.80923ZM104.253 5.2H108.653V3.2H104.253V5.2ZM108.653 5.2C110.527 5.2 112.242 5.40537 113.804 5.80828L114.303 3.87172C112.558 3.42129 110.673 3.2 108.653 3.2V5.2ZM113.804 5.80828C115.341 6.20501 116.64 6.82966 117.719 7.66935L118.947 6.09065C117.627 5.06367 116.073 4.32832 114.303 3.87172L113.804 5.80828ZM117.728 7.67583C118.813 8.5014 119.658 9.57781 120.26 10.9276L122.087 10.1123C121.356 8.47552 120.307 7.12526 118.939 6.08417L117.728 7.67583ZM120.266 10.9411C120.883 12.2681 121.213 13.9421 121.213 16H123.213C123.213 13.7379 122.851 11.7586 122.08 10.0989L120.266 10.9411ZM121.213 16C121.213 18.0579 120.883 19.7319 120.266 21.0589L122.08 21.9011C122.851 20.2414 123.213 18.2621 123.213 16H121.213ZM120.26 21.0723C119.658 22.4222 118.813 23.4986 117.728 24.3242L118.939 25.9158C120.307 24.8747 121.356 23.5245 122.087 21.8876L120.26 21.0723ZM117.719 24.3306C116.64 25.1703 115.341 25.795 113.804 26.1917L114.303 28.1283C116.073 27.6717 117.627 26.9363 118.947 25.9094L117.719 24.3306ZM113.804 26.1917C112.242 26.5946 110.527 26.8 108.653 26.8V28.8C110.673 28.8 112.558 28.5787 114.303 28.1283L113.804 26.1917ZM108.653 26.8H104.253V28.8H108.653V26.8ZM104.253 26.8C102.375 26.8 100.64 26.607 99.0451 26.2272L98.5818 28.1728C100.347 28.593 102.238 28.8 104.253 28.8V26.8ZM99.0633 26.2317C97.5249 25.8347 96.2089 25.2087 95.099 24.3642L93.8879 25.9558C95.2313 26.978 96.7953 27.712 98.5636 28.1683L99.0633 26.2317ZM95.1181 24.3791C94.0473 23.5224 93.1935 22.4223 92.5604 21.0589L90.7464 21.9011C91.5001 23.5243 92.5396 24.8776 93.8687 25.9409L95.1181 24.3791ZM92.5666 21.0723C91.9724 19.7414 91.6534 18.0624 91.6534 16H89.6534C89.6534 18.2576 90.0011 20.2319 90.7403 21.8876L92.5666 21.0723ZM87.4134 16C87.4134 18.6306 87.8144 20.9335 88.6557 22.8772L90.4912 22.0828C89.7858 20.4532 89.4134 18.436 89.4134 16H87.4134ZM88.6631 22.8938C89.5219 24.7833 90.7073 26.3521 92.2251 27.5779L93.4818 26.0221C92.2262 25.0079 91.225 23.6967 90.4838 22.0662L88.6631 22.8938ZM92.2324 27.5837C93.7608 28.795 95.5507 29.6782 97.5858 30.2435L98.1211 28.3165C96.3162 27.8151 94.7727 27.045 93.4745 26.0163L92.2324 27.5837ZM97.6016 30.2478C99.6419 30.7788 101.861 31.04 104.253 31.04V29.04C102.006 29.04 99.9583 28.7945 98.1053 28.3122L97.6016 30.2478ZM104.253 31.04H108.653V29.04H104.253V31.04ZM108.653 31.04C111.045 31.04 113.253 30.7789 115.269 30.2469L114.758 28.3131C112.934 28.7945 110.901 29.04 108.653 29.04V31.04ZM115.281 30.2435C117.317 29.6779 119.097 28.7934 120.602 27.5779L119.345 26.0221C118.077 27.0466 116.55 27.8154 114.746 28.3165L115.281 30.2435ZM120.595 27.5837C122.144 26.3558 123.334 24.7814 124.169 22.8823L122.338 22.0777C121.626 23.6986 120.63 25.0042 119.352 26.0163L120.595 27.5837ZM124.171 22.8772C125.012 20.9335 125.413 18.6306 125.413 16H123.413C123.413 18.436 123.041 20.4532 122.336 22.0828L124.171 22.8772ZM125.413 16C125.413 13.3701 125.013 11.078 124.169 9.15773L122.338 9.96227C123.041 11.562 123.413 13.5633 123.413 16H125.413ZM124.171 9.16278C123.338 7.23714 122.147 5.64672 120.595 4.41625L119.352 5.98375C120.626 6.99328 121.623 8.30952 122.336 9.95722L124.171 9.16278ZM120.602 4.42206C119.094 3.20385 117.309 2.33162 115.269 1.7931L114.758 3.7269C116.558 4.20171 118.08 4.95615 119.345 5.97794L120.602 4.42206ZM115.281 1.79648C113.261 1.23535 111.049 0.959999 108.653 0.959999V2.96C110.897 2.96 112.926 3.21798 114.746 3.72352L115.281 1.79648ZM108.653 0.959999H104.253V2.96H108.653V0.959999ZM104.253 0.959999C101.857 0.959999 99.6337 1.23541 97.5892 1.79554L98.1177 3.72446C99.9665 3.21792 102.01 2.96 104.253 2.96V0.959999ZM97.5983 1.7931C95.5586 2.33136 93.7642 3.20232 92.2324 4.41625L93.4745 5.98375C94.7693 4.95767 96.3083 4.20197 98.1086 3.7269L97.5983 1.7931ZM92.2251 4.42206C90.7042 5.65048 89.5187 7.23527 88.6608 9.15133L90.4861 9.96866C91.2282 8.3114 92.2293 6.98952 93.4818 5.97794L92.2251 4.42206ZM88.6579 9.15773C87.8142 11.078 87.4134 13.3701 87.4134 16H89.4134C89.4134 13.5633 89.786 11.562 90.489 9.96227L88.6579 9.15773ZM88.4134 16C88.4134 13.3762 88.8128 11.2141 89.5699 9.48014L87.737 8.67986C86.8407 10.7326 86.4134 13.1838 86.4134 16H88.4134ZM89.5719 9.47546C90.34 7.69142 91.4051 6.26813 92.7598 5.17951L91.507 3.62049C89.8751 4.93187 88.6202 6.62858 87.735 8.68454L89.5719 9.47546ZM92.7598 5.17951C94.1316 4.07722 95.7736 3.2695 97.7048 2.76788L97.202 0.832115C95.0266 1.39717 93.122 2.32278 91.507 3.62049L92.7598 5.17951ZM97.7134 2.76561C99.6978 2.23134 101.876 1.96 104.253 1.96V-0.0400004C101.724 -0.0400004 99.369 0.248654 97.1935 0.834382L97.7134 2.76561ZM104.253 1.96H108.653V-0.0400004H104.253V1.96ZM108.653 1.96C110.16 1.96 111.568 2.05095 112.877 2.23071L113.149 0.249287C111.739 0.0557184 110.24 -0.0400004 108.653 -0.0400004V1.96ZM112.899 2.23341C114.188 2.3822 115.457 2.71721 116.706 3.24198L117.481 1.39802C116.063 0.802783 114.612 0.417796 113.128 0.246589L112.899 2.23341ZM116.722 3.24848C117.957 3.74243 119.197 4.46555 120.441 5.43022L121.666 3.84978C120.297 2.78778 118.897 1.96424 117.465 1.39152L116.722 3.24848ZM120.459 5.44384C121.713 6.37182 123.03 7.64559 124.408 9.28376L125.939 7.99624C124.49 6.27441 123.061 4.88152 121.648 3.83616L120.459 5.44384ZM124.466 9.34711C125.548 10.4286 126.467 11.8889 127.202 13.7649L129.064 13.0351C128.253 10.9644 127.199 9.25136 125.881 7.93289L124.466 9.34711ZM127.202 13.7649C127.924 15.6064 128.293 17.6803 128.293 20H130.293C130.293 17.4664 129.889 15.1403 129.064 13.0351L127.202 13.7649ZM128.293 20C128.293 22.5956 127.895 24.7448 127.137 26.4799L128.97 27.2801C129.866 25.2285 130.293 22.7911 130.293 20H128.293ZM127.132 26.4908C126.393 28.2414 125.345 29.6334 123.996 30.6937L125.231 32.2663C126.868 30.9799 128.114 29.3053 128.975 27.2692L127.132 26.4908ZM123.98 30.706C122.638 31.8042 121.012 32.6107 119.082 33.1121L119.585 35.0479C121.761 34.4826 123.656 33.5558 125.247 32.254L123.98 30.706ZM119.067 33.1161C117.139 33.6488 115.004 33.92 112.653 33.92V35.92C115.157 35.92 117.474 35.6312 119.6 35.0439L119.067 33.1161ZM112.653 33.92H108.253V35.92H112.653V33.92ZM108.253 33.92C105.609 33.92 103.161 33.6218 100.906 33.0325L100.401 34.9675C102.839 35.6048 105.458 35.92 108.253 35.92V33.92ZM100.906 33.0325C98.7048 32.4571 96.9333 31.4815 95.5543 30.1267L94.1526 31.5533C95.8136 33.1852 97.9087 34.3162 100.401 34.9675L100.906 33.0325ZM95.5129 30.0882C94.0215 28.78 92.8232 27.5661 91.9074 26.4468L90.3595 27.7132C91.3636 28.9405 92.6454 30.2333 94.194 31.5918L95.5129 30.0882ZM91.9143 26.4553C90.9937 25.3046 90.2776 24.1824 89.7559 23.0893L87.951 23.9507C88.5493 25.2043 89.3531 26.4554 90.3526 27.7047L91.9143 26.4553ZM89.7638 23.1062C89.2644 22.0075 88.9169 20.8888 88.7187 19.7487L86.7482 20.0913C86.9766 21.4046 87.3758 22.6859 87.9431 23.9338L89.7638 23.1062ZM88.7187 19.7487C88.5162 18.5845 88.4134 17.3356 88.4134 16H86.4134C86.4134 17.4377 86.524 18.8021 86.7482 20.0913L88.7187 19.7487ZM108.653 23.12C109.753 23.12 110.806 23.0213 111.81 22.8206L111.417 20.8594C110.554 21.032 109.634 21.12 108.653 21.12V23.12ZM111.83 22.8162C112.895 22.5797 113.852 22.1892 114.688 21.632L113.579 19.9679C112.975 20.3708 112.252 20.6736 111.397 20.8638L111.83 22.8162ZM114.688 21.632C115.55 21.0575 116.224 20.3022 116.702 19.3794L114.925 18.4606C114.603 19.0844 114.157 19.5825 113.579 19.9679L114.688 21.632ZM116.696 19.3906C117.217 18.4124 117.453 17.2683 117.453 16H115.453C115.453 17.025 115.263 17.8276 114.931 18.4494L116.696 19.3906ZM117.453 16C117.453 15.2769 117.363 14.5919 117.171 13.9527L115.256 14.5273C115.384 14.9548 115.453 15.4431 115.453 16H117.453ZM116.494 13.2803C115.299 12.9305 114.017 12.76 112.653 12.76V14.76C113.85 14.76 114.941 14.9095 115.933 15.1997L116.494 13.2803ZM112.653 12.76H108.253V14.76H112.653V12.76ZM108.253 12.76C107.12 12.76 106.033 12.8734 104.997 13.1038L105.43 15.0562C106.313 14.86 107.254 14.76 108.253 14.76V12.76ZM104.997 13.1038C103.934 13.34 102.969 13.7286 102.113 14.2788L103.194 15.9612C103.832 15.5514 104.573 15.2467 105.43 15.0562L104.997 13.1038ZM102.099 14.2879C101.235 14.864 100.552 15.6309 100.051 16.5694L101.816 17.5106C102.169 16.8491 102.632 16.336 103.208 15.9521L102.099 14.2879ZM100.051 16.5694C99.5278 17.5506 99.2934 18.7094 99.2934 20H101.293C101.293 18.944 101.486 18.1294 101.816 17.5106L100.051 16.5694ZM99.2934 20C99.2934 20.6883 99.3501 21.3096 99.4833 21.8425L101.424 21.3575C101.343 21.0371 101.293 20.5917 101.293 20H99.2934ZM100.137 22.5487C100.765 22.758 101.43 22.9049 102.129 22.9923L102.377 21.0077C101.797 20.9351 101.262 20.8153 100.77 20.6513L100.137 22.5487ZM102.129 22.9923C102.813 23.0778 103.522 23.12 104.253 23.12V21.12C103.599 21.12 102.973 21.0822 102.377 21.0077L102.129 22.9923ZM104.253 23.12H108.653V21.12H104.253V23.12ZM161.572 4.2H162.572V3.2H161.572V4.2ZM161.572 6.2L162.253 6.93224L162.572 6.63558V6.2H161.572ZM140.972 25.36L140.291 24.6278L138.429 26.36H140.972V25.36ZM162.852 25.36H163.852V24.36H162.852V25.36ZM162.852 27.8V28.8H163.852V27.8H162.852ZM136.732 27.8H135.732V28.8H136.732V27.8ZM136.732 25.8L136.053 25.0664L135.732 25.3633V25.8H136.732ZM157.412 6.64L158.092 7.37355L159.963 5.64H157.412V6.64ZM137.972 6.64H136.972V7.64H137.972V6.64ZM137.972 4.2V3.2H136.972V4.2H137.972ZM151.852 8.88L152.53 9.61539L154.413 7.88H151.852V8.88ZM134.532 24.84L133.855 24.1046L133.532 24.4017V24.84H134.532ZM134.532 30.04H133.532V31.04H134.532V30.04ZM165.052 30.04V31.04H166.052V30.04H165.052ZM165.052 23.12H166.052V22.12H165.052V23.12ZM146.572 23.12L145.894 22.3853L144.015 24.12H146.572V23.12ZM163.812 7.2L164.491 7.93467L164.812 7.63771V7.2H163.812ZM163.812 1.96H164.812V0.959999H163.812V1.96ZM135.732 1.96V0.959999H134.732V1.96H135.732ZM135.732 8.88H134.732V9.88H135.732V8.88ZM134.732 0.96V-0.0400004H133.732V0.96H134.732ZM164.812 0.96L165.54 0.274414L165.244 -0.0400004H164.812V0.96ZM168.692 5.08H169.692V4.68325L169.42 4.39441L168.692 5.08ZM168.692 11.6L169.369 12.3361L169.692 12.039V11.6H168.692ZM157.252 22.12L156.575 21.3839L154.687 23.12H157.252V22.12ZM166.052 22.12L166.78 21.4344L166.484 21.12H166.052V22.12ZM169.932 26.24H170.932V25.8432L170.66 25.5544L169.932 26.24ZM169.932 34.92V35.92H170.932V34.92H169.932ZM137.652 34.92L136.967 35.648L137.255 35.92H137.652V34.92ZM133.532 31.04H132.532V31.4719L132.847 31.768L133.532 31.04ZM133.532 24.4L132.854 23.6654L132.532 23.9623V24.4H133.532ZM145.052 13.76L145.731 14.4946L147.609 12.76H145.052V13.76ZM138.852 13.76L138.167 14.488L138.455 14.76H138.852V13.76ZM134.732 9.88H133.732V10.3119L134.047 10.608L134.732 9.88ZM160.572 4.2V6.2H162.572V4.2H160.572ZM160.891 5.46776L140.291 24.6278L141.653 26.0922L162.253 6.93224L160.891 5.46776ZM140.972 26.36H162.852V24.36H140.972V26.36ZM161.852 25.36V27.8H163.852V25.36H161.852ZM162.852 26.8H136.732V28.8H162.852V26.8ZM137.732 27.8V25.8H135.732V27.8H137.732ZM137.412 26.5336L158.092 7.37355L156.733 5.90645L136.053 25.0664L137.412 26.5336ZM157.412 5.64H137.972V7.64H157.412V5.64ZM138.972 6.64V4.2H136.972V6.64H138.972ZM137.972 5.2H161.572V3.2H137.972V5.2ZM151.175 8.14461L133.855 24.1046L135.21 25.5754L152.53 9.61539L151.175 8.14461ZM133.532 24.84V30.04H135.532V24.84H133.532ZM134.532 31.04H165.052V29.04H134.532V31.04ZM166.052 30.04V23.12H164.052V30.04H166.052ZM165.052 22.12H146.572V24.12H165.052V22.12ZM147.251 23.8547L164.491 7.93467L163.134 6.46533L145.894 22.3853L147.251 23.8547ZM164.812 7.2V1.96H162.812V7.2H164.812ZM163.812 0.959999H135.732V2.96H163.812V0.959999ZM134.732 1.96V8.88H136.732V1.96H134.732ZM135.732 9.88H151.852V7.88H135.732V9.88ZM134.732 1.96H164.812V-0.0400004H134.732V1.96ZM164.084 1.64558L167.964 5.76558L169.42 4.39441L165.54 0.274414L164.084 1.64558ZM167.692 5.08V11.6H169.692V5.08H167.692ZM168.015 10.8639L156.575 21.3839L157.929 22.8561L169.369 12.3361L168.015 10.8639ZM157.252 23.12H166.052V21.12H157.252V23.12ZM165.324 22.8056L169.204 26.9256L170.66 25.5544L166.78 21.4344L165.324 22.8056ZM168.932 26.24V34.92H170.932V26.24H168.932ZM169.932 33.92H137.652V35.92H169.932V33.92ZM138.338 34.192L134.218 30.312L132.847 31.768L136.967 35.648L138.338 34.192ZM134.532 31.04V24.4H132.532V31.04H134.532ZM134.211 25.1346L145.731 14.4946L144.374 13.0254L132.854 23.6654L134.211 25.1346ZM145.052 12.76H138.852V14.76H145.052V12.76ZM139.538 13.032L135.418 9.15201L134.047 10.608L138.167 14.488L139.538 13.032ZM135.732 9.88V0.96H133.732V9.88H135.732ZM200.018 9.24L200.432 8.32963L200.432 8.32963L200.018 9.24ZM200.738 9.8L199.949 10.4139L199.969 10.4398L199.991 10.4644L200.738 9.8ZM200.738 11.68L199.991 11.0156V11.0156L200.738 11.68ZM199.938 12.24L199.554 11.3169L199.539 11.323L199.525 11.3296L199.938 12.24ZM198.938 12.52L198.797 11.53L198.786 11.5316L198.938 12.52ZM183.218 12.6H182.218V13.6H183.218V12.6ZM183.218 8.88V7.88H182.218V8.88H183.218ZM199.898 14.6L200.111 15.5772L200.126 15.5739L200.141 15.5701L199.898 14.6ZM202.818 12.64L201.961 12.1255L201.957 12.1322L201.953 12.139L202.818 12.64ZM202.858 8.84L203.735 8.35808V8.35808L202.858 8.84ZM201.658 7.56L201.104 8.39205L201.114 8.3989L201.124 8.40549L201.658 7.56ZM199.978 6.88L199.726 7.84762L199.75 7.8539L199.774 7.85898L199.978 6.88ZM181.018 6.64V5.64H180.018V6.64H181.018ZM181.018 14.8H180.018V15.8H181.018V14.8ZM201.658 16.6V15.6H201.393L201.162 15.7318L201.658 16.6ZM200.418 17.08L200.189 16.1066L200.418 17.08ZM199.138 17.4L198.881 16.4338L197.353 16.8412L198.376 18.047L199.138 17.4ZM203.618 22.6L202.866 23.2585L202.872 23.2651L203.618 22.6ZM208.178 27.8V28.8H210.363L208.935 27.1464L208.178 27.8ZM204.938 27.8L204.185 28.4571L204.484 28.8H204.938V27.8ZM195.698 17.2L196.452 16.5429L196.153 16.2H195.698V17.2ZM181.018 17.2V16.2H180.018V17.2H181.018ZM181.018 27.8V28.8H182.018V27.8H181.018ZM178.538 27.8H177.538V28.8H178.538V27.8ZM178.538 4.2V3.2H177.538V4.2H178.538ZM201.098 4.56L200.849 5.52851L200.856 5.53014L201.098 4.56ZM203.538 5.72L202.914 6.50087L202.921 6.50682L202.929 6.51262L203.538 5.72ZM205.138 7.76L204.227 8.17159L204.233 8.18365L204.238 8.19556L205.138 7.76ZM204.738 14.4L205.552 14.9813L205.56 14.9704L204.738 14.4ZM201.698 16.6V17.6H201.888L202.064 17.531L201.698 16.6ZM207.258 6.84L206.339 7.23393L206.343 7.24199L207.258 6.84ZM205.218 4.08L204.585 4.85396V4.85396L205.218 4.08ZM202.058 2.48L201.781 3.44073L201.786 3.44231L202.058 2.48ZM176.378 1.96V0.959999H175.378V1.96H176.378ZM176.378 30.04H175.378V31.04H176.378V30.04ZM183.218 30.04V31.04H184.218V30.04H183.218ZM183.218 19.4V18.4H182.218V19.4H183.218ZM194.658 19.4L195.415 18.7459L195.116 18.4H194.658V19.4ZM203.858 30.04L203.102 30.6941L203.401 31.04H203.858V30.04ZM213.058 30.04V31.04H215.257L213.812 29.3828L213.058 30.04ZM202.978 18.48L202.576 17.5647L201.331 18.1123L202.225 19.1372L202.978 18.48ZM175.378 31.04H174.378V31.4719L174.693 31.768L175.378 31.04ZM175.378 0.96V-0.0400004H174.378V0.96H175.378ZM201.058 1.2L200.894 2.18639L200.907 2.18862L200.921 2.19049L201.058 1.2ZM203.938 2.08L203.511 2.9843L203.521 2.98868L203.938 2.08ZM206.978 4.04L206.344 4.81313L206.354 4.82087L206.978 4.04ZM210.378 7.44L209.616 8.08723L209.643 8.11829L209.671 8.14711L210.378 7.44ZM212.178 10.56L211.228 10.8704L211.232 10.8822L211.236 10.8938L212.178 10.56ZM211.698 19.44L210.829 18.9457L210.825 18.9522L210.822 18.9587L211.698 19.44ZM208.418 22.76L207.909 21.8997L206.882 22.5081L207.661 23.4125L208.418 22.76ZM211.018 25.76L211.772 25.1029V25.1029L211.018 25.76ZM213.738 28.92L212.976 29.5677L212.985 29.5771L213.738 28.92ZM216.418 32L215.663 32.6557L215.665 32.6571L216.418 32ZM218.978 34.92V35.92H221.194L219.728 34.2584L218.978 34.92ZM207.458 34.92L206.766 35.6412L207.056 35.92H207.458V34.92ZM203.418 31.04L202.662 31.6937L202.692 31.729L202.726 31.7612L203.418 31.04ZM197.578 24.28L198.335 23.6263L198.036 23.28H197.578V24.28ZM188.098 24.28V23.28H187.098V24.28H188.098ZM188.098 34.92V35.92H189.098V34.92H188.098ZM179.498 34.92L178.813 35.648L179.102 35.92H179.498V34.92ZM198.058 9.88C198.323 9.88 198.605 9.90205 198.906 9.94837L199.21 7.97163C198.818 7.91128 198.434 7.88 198.058 7.88V9.88ZM198.906 9.94837C199.171 9.98902 199.402 10.0581 199.605 10.1504L200.432 8.32963C200.049 8.15526 199.64 8.03765 199.21 7.97163L198.906 9.94837ZM199.605 10.1504C199.76 10.2209 199.868 10.3093 199.949 10.4139L201.528 9.18606C201.236 8.81069 200.864 8.52581 200.432 8.32963L199.605 10.1504ZM199.991 10.4644C200.004 10.4794 200.058 10.5424 200.058 10.76H202.058C202.058 10.1776 201.899 9.60057 201.486 9.13563L199.991 10.4644ZM200.058 10.76C200.058 10.9307 200.016 10.988 199.991 11.0156L201.486 12.3444C201.888 11.892 202.058 11.3359 202.058 10.76H200.058ZM199.991 11.0156C199.885 11.1344 199.746 11.2368 199.554 11.3169L200.323 13.1631C200.771 12.9766 201.165 12.7056 201.486 12.3444L199.991 11.0156ZM199.525 11.3296C199.331 11.4176 199.092 11.4879 198.797 11.5301L199.08 13.5099C199.532 13.4454 199.959 13.3291 200.352 13.1504L199.525 11.3296ZM198.786 11.5316C198.475 11.5795 198.221 11.6 198.018 11.6V13.6C198.349 13.6 198.708 13.5672 199.09 13.5084L198.786 11.5316ZM198.018 11.6H183.218V13.6H198.018V11.6ZM184.218 12.6V8.88H182.218V12.6H184.218ZM183.218 9.88H198.058V7.88H183.218V9.88ZM198.018 15.8C198.728 15.8 199.426 15.726 200.111 15.5772L199.686 13.6228C199.144 13.7407 198.588 13.8 198.018 13.8V15.8ZM200.141 15.5701C200.874 15.3869 201.547 15.1077 202.152 14.7255L201.084 13.0345C200.676 13.2923 200.203 13.4931 199.656 13.6299L200.141 15.5701ZM202.152 14.7255C202.792 14.3213 203.308 13.791 203.684 13.141L201.953 12.139C201.743 12.5023 201.458 12.7987 201.084 13.0345L202.152 14.7255ZM203.676 13.1545C204.103 12.4426 204.298 11.6322 204.298 10.76H202.298C202.298 11.3278 202.174 11.7707 201.961 12.1255L203.676 13.1545ZM204.298 10.76C204.298 9.88265 204.126 9.06899 203.735 8.35808L201.982 9.32192C202.178 9.67768 202.298 10.144 202.298 10.76H204.298ZM203.735 8.35808C203.361 7.679 202.844 7.12629 202.192 6.71451L201.124 8.40549C201.486 8.63371 201.769 8.93433 201.982 9.32192L203.735 8.35808ZM202.213 6.72795C201.613 6.32816 200.931 6.05699 200.182 5.90102L199.774 7.85898C200.306 7.96968 200.743 8.15184 201.104 8.39205L202.213 6.72795ZM200.231 5.91238C199.531 5.7298 198.806 5.64 198.058 5.64V7.64C198.644 7.64 199.199 7.7102 199.726 7.84762L200.231 5.91238ZM198.058 5.64H181.018V7.64H198.058V5.64ZM180.018 6.64V14.8H182.018V6.64H180.018ZM181.018 15.8H198.018V13.8H181.018V15.8ZM201.162 15.7318C200.879 15.8936 200.557 16.0201 200.189 16.1066L200.647 18.0534C201.187 17.9265 201.691 17.7331 202.155 17.4682L201.162 15.7318ZM200.189 16.1066C199.728 16.2152 199.291 16.3243 198.881 16.4338L199.396 18.3662C199.786 18.2624 200.203 18.1581 200.647 18.0534L200.189 16.1066ZM198.376 18.047C199.872 19.8108 201.369 21.548 202.866 23.2585L204.371 21.9415C202.881 20.2387 201.391 18.5092 199.901 16.753L198.376 18.047ZM202.872 23.2651C204.388 24.9679 205.905 26.6974 207.422 28.4536L208.935 27.1464C207.412 25.3826 205.889 23.6454 204.365 21.9349L202.872 23.2651ZM208.178 26.8H204.938V28.8H208.178V26.8ZM205.692 27.1429L196.452 16.5429L194.945 17.8571L204.185 28.4571L205.692 27.1429ZM195.698 16.2H181.018V18.2H195.698V16.2ZM180.018 17.2V27.8H182.018V17.2H180.018ZM181.018 26.8H178.538V28.8H181.018V26.8ZM179.538 27.8V4.2H177.538V27.8H179.538ZM178.538 5.2H198.058V3.2H178.538V5.2ZM198.058 5.2C199.079 5.2 200.007 5.312 200.849 5.52849L201.347 3.59151C200.323 3.328 199.225 3.2 198.058 3.2V5.2ZM200.856 5.53014C201.698 5.74078 202.376 6.07057 202.914 6.50087L204.163 4.93913C203.368 4.30276 202.418 3.85922 201.341 3.58986L200.856 5.53014ZM202.929 6.51262C203.487 6.94191 203.919 7.48906 204.227 8.17159L206.05 7.34841C205.611 6.3776 204.977 5.56476 204.148 4.92737L202.929 6.51262ZM204.238 8.19556C204.557 8.85413 204.738 9.69699 204.738 10.76H206.738C206.738 9.47634 206.52 8.3192 206.039 7.32444L204.238 8.19556ZM204.738 10.76C204.738 12.075 204.441 13.0754 203.917 13.8296L205.56 14.9704C206.369 13.8046 206.738 12.3783 206.738 10.76H204.738ZM203.925 13.8188C203.398 14.5566 202.562 15.1872 201.333 15.669L202.064 17.531C203.555 16.9462 204.746 16.1101 205.552 14.9812L203.925 13.8188ZM201.698 15.6H201.658V17.6H201.698V15.6ZM208.978 10.76C208.978 9.13799 208.723 7.6876 208.174 6.43801L206.343 7.24199C206.754 8.17906 206.978 9.34201 206.978 10.76H208.978ZM208.178 6.44608C207.639 5.18912 206.865 4.13512 205.852 3.30604L204.585 4.85396C205.332 5.46488 205.918 6.25087 206.339 7.23392L208.178 6.44608ZM205.852 3.30604C204.853 2.48918 203.673 1.89716 202.33 1.51769L201.786 3.44231C202.897 3.75617 203.824 4.23082 204.585 4.85396L205.852 3.30604ZM202.336 1.51928C201.032 1.14249 199.603 0.959999 198.058 0.959999V2.96C199.447 2.96 200.685 3.12418 201.781 3.44071L202.336 1.51928ZM198.058 0.959999H176.378V2.96H198.058V0.959999ZM175.378 1.96V30.04H177.378V1.96H175.378ZM176.378 31.04H183.218V29.04H176.378V31.04ZM184.218 30.04V19.4H182.218V30.04H184.218ZM183.218 20.4H194.658V18.4H183.218V20.4ZM193.902 20.0541L203.102 30.6941L204.615 29.3859L195.415 18.7459L193.902 20.0541ZM203.858 31.04H213.058V29.04H203.858V31.04ZM213.812 29.3828L203.732 17.8228L202.225 19.1372L212.305 30.6972L213.812 29.3828ZM203.381 19.3953C205.192 18.5984 206.61 17.4729 207.568 15.9936C208.525 14.5151 208.978 12.7538 208.978 10.76H206.978C206.978 12.4462 206.598 13.8116 205.889 14.9064C205.18 16.0005 204.098 16.895 202.576 17.5647L203.381 19.3953ZM176.378 31.04V0.96H174.378V31.04H176.378ZM175.378 1.96H198.058V-0.0400004H175.378V1.96ZM198.058 1.96C199.047 1.96 199.992 2.03604 200.894 2.18639L201.223 0.213605C200.205 0.0439565 199.15 -0.0400004 198.058 -0.0400004V1.96ZM200.921 2.19049C201.771 2.30863 202.634 2.57005 203.511 2.98425L204.365 1.17575C203.323 0.683278 202.265 0.35803 201.196 0.209507L200.921 2.19049ZM203.521 2.98868C204.414 3.39896 205.355 4.00167 206.344 4.81307L207.613 3.26692C206.522 2.37165 205.436 1.6677 204.356 1.17132L203.521 2.98868ZM206.354 4.82087C207.356 5.62287 208.444 6.70671 209.616 8.08723L211.141 6.79277C209.913 5.34662 208.734 4.16379 207.603 3.25913L206.354 4.82087ZM209.671 8.14711C210.309 8.78431 210.838 9.67578 211.228 10.8704L213.129 10.2496C212.666 8.83088 211.995 7.64236 211.086 6.73289L209.671 8.14711ZM211.236 10.8938C211.647 12.0546 211.858 13.3403 211.858 14.76H213.858C213.858 13.1397 213.617 11.6254 213.121 10.2262L211.236 10.8938ZM211.858 14.76C211.858 16.3688 211.507 17.7544 210.829 18.9457L212.568 19.9343C213.437 18.4056 213.858 16.6712 213.858 14.76H211.858ZM210.822 18.9587C210.168 20.1495 209.207 21.1302 207.909 21.8997L208.928 23.6203C210.51 22.6832 211.735 21.4505 212.575 19.9213L210.822 18.9587ZM207.661 23.4125C208.489 24.3742 209.357 25.3757 210.265 26.4171L211.772 25.1029C210.867 24.0643 210.001 23.0658 209.176 22.1075L207.661 23.4125ZM210.265 26.4171C211.169 27.4539 212.072 28.5041 212.977 29.5676L214.5 28.2724C213.591 27.2026 212.682 26.1461 211.772 25.1029L210.265 26.4171ZM212.985 29.5771C213.891 30.6167 214.784 31.6429 215.663 32.6557L217.173 31.3443C216.293 30.3305 215.399 29.3033 214.492 28.2629L212.985 29.5771ZM215.665 32.6571C216.572 33.6984 217.427 34.6733 218.229 35.5816L219.728 34.2584C218.93 33.3534 218.078 32.3816 217.172 31.3429L215.665 32.6571ZM218.978 33.92H207.458V35.92H218.978V33.92ZM208.151 34.1988L204.111 30.3188L202.726 31.7612L206.766 35.6412L208.151 34.1988ZM204.175 30.3863L198.335 23.6263L196.822 24.9337L202.662 31.6937L204.175 30.3863ZM197.578 23.28H188.098V25.28H197.578V23.28ZM187.098 24.28V34.92H189.098V24.28H187.098ZM188.098 33.92H179.498V35.92H188.098V33.92ZM180.184 34.192L176.064 30.312L174.693 31.768L178.813 35.648L180.184 34.192Z"
      fill="black" mask="url(#path-1-outside-1_235_3014)" />
  </g>
  <defs>
    <filter id="filter0_d_235_3014" x="0.398438" y="0.959961" width="222.578" height="41.96"
      filterUnits="userSpaceOnUse" color-interpolation-filters="sRGB">
      <feFlood flood-opacity="0" result="BackgroundImageFix" />
      <feColorMatrix in="SourceAlpha" type="matrix"
        values="0 0 0 0 0 0 0 0 0 0 0 0 0 0 0 0 0 0 127 0" result="hardAlpha" />
      <feOffset dy="4" />
      <feGaussianBlur stdDeviation="2" />
      <feComposite in2="hardAlpha" operator="out" />
      <feColorMatrix type="matrix" values="0 0 0 0 0 0 0 0 0 0 0 0 0 0 0 0 0 0 0.25 0" />
      <feBlend mode="normal" in2="BackgroundImageFix" result="effect1_dropShadow_235_3014" />
      <feBlend mode="normal" in="SourceGraphic" in2="effect1_dropShadow_235_3014" result="shape" />
    </filter>
  </defs>
</svg>
  